<?xml version="1.0" encoding="UTF-8" standalone="no"?>
<!DOCTYPE svg PUBLIC "-//W3C//DTD SVG 1.1//EN"
 "http://www.w3.org/Graphics/SVG/1.1/DTD/svg11.dtd">
<!-- Generated by graphviz version 2.38.0 (20140413.2041)
 -->
<!-- Title: es.ull.esit.GeoMap Pages: 1 -->
<svg width="479pt" height="259pt"
 viewBox="0.00 0.00 478.50 259.00" xmlns="http://www.w3.org/2000/svg" xmlns:xlink="http://www.w3.org/1999/xlink">
<g id="graph0" class="graph" transform="scale(1 1) rotate(0) translate(4 255)">
<title>es.ull.esit.GeoMap</title>
<polygon fill="white" stroke="none" points="-4,4 -4,-255 474.5,-255 474.5,4 -4,4"/>
<!-- Node1 -->
<g id="node1" class="node"><title>Node1</title>
<polygon fill="#bfbfbf" stroke="black" points="100,-0.5 100,-134.5 249,-134.5 249,-0.5 100,-0.5"/>
<text text-anchor="middle" x="174.5" y="-122.5" font-family="Helvetica,sans-Serif" font-size="10.00">es.ull.esit.GeoMap</text>
<polyline fill="none" stroke="black" points="100,-115.5 249,-115.5 "/>
<text text-anchor="start" x="108" y="-103.5" font-family="Helvetica,sans-Serif" font-size="10.00">+ N_TRANSPORTS</text>
<text text-anchor="start" x="108" y="-92.5" font-family="Helvetica,sans-Serif" font-size="10.00">&#45; mapWidth</text>
<text text-anchor="start" x="108" y="-81.5" font-family="Helvetica,sans-Serif" font-size="10.00">&#45; mapHeight</text>
<polyline fill="none" stroke="black" points="100,-74.5 249,-74.5 "/>
<text text-anchor="start" x="108" y="-62.5" font-family="Helvetica,sans-Serif" font-size="10.00">+ setup()</text>
<text text-anchor="start" x="108" y="-51.5" font-family="Helvetica,sans-Serif" font-size="10.00">+ draw()</text>
<text text-anchor="start" x="108" y="-40.5" font-family="Helvetica,sans-Serif" font-size="10.00">+ keyPressed()</text>
<text text-anchor="start" x="108" y="-29.5" font-family="Helvetica,sans-Serif" font-size="10.00">+ main()</text>
<text text-anchor="start" x="108" y="-18.5" font-family="Helvetica,sans-Serif" font-size="10.00">&#45; updateMarkers()</text>
<text text-anchor="start" x="108" y="-7.5" font-family="Helvetica,sans-Serif" font-size="10.00">&#45; generateRandomTransports()</text>
</g>
<!-- Node2 -->
<g id="node2" class="node"><title>Node2</title>
<polygon fill="white" stroke="#bfbfbf" points="0,-188 0,-245 51,-245 51,-188 0,-188"/>
<text text-anchor="middle" x="25.5" y="-233" font-family="Helvetica,sans-Serif" font-size="10.00">PApplet</text>
<polyline fill="none" stroke="#bfbfbf" points="0,-226 51,-226 "/>
<text text-anchor="middle" x="25.5" y="-214" font-family="Helvetica,sans-Serif" font-size="10.00"> </text>
<polyline fill="none" stroke="#bfbfbf" points="0,-207 51,-207 "/>
<text text-anchor="middle" x="25.5" y="-195" font-family="Helvetica,sans-Serif" font-size="10.00"> </text>
</g>
<!-- Node2&#45;&gt;Node1 -->
<g id="edge1" class="edge"><title>Node2&#45;&gt;Node1</title>
<path fill="none" stroke="midnightblue" d="M58.4009,-183.041C72.9126,-168.724 90.5235,-151.349 107.597,-134.505"/>
<polygon fill="none" stroke="midnightblue" points="55.7746,-180.715 51.114,-190.23 60.6908,-185.698 55.7746,-180.715"/>
</g>
<!-- Node3 -->
<g id="node3" class="node"><title>Node3</title>
<polygon fill="white" stroke="#bfbfbf" points="69,-188 69,-245 146,-245 146,-188 69,-188"/>
<text text-anchor="middle" x="107.5" y="-233" font-family="Helvetica,sans-Serif" font-size="10.00">UnfoldingMap</text>
<polyline fill="none" stroke="#bfbfbf" points="69,-226 146,-226 "/>
<text text-anchor="middle" x="107.5" y="-214" font-family="Helvetica,sans-Serif" font-size="10.00"> </text>
<polyline fill="none" stroke="#bfbfbf" points="69,-207 146,-207 "/>
<text text-anchor="middle" x="107.5" y="-195" font-family="Helvetica,sans-Serif" font-size="10.00"> </text>
</g>
<!-- Node3&#45;&gt;Node1 -->
<g id="edge2" class="edge"><title>Node3&#45;&gt;Node1</title>
<path fill="none" stroke="#404040" d="M120.102,-187.85C125.623,-175.737 132.405,-160.857 139.284,-145.765"/>
<polygon fill="none" stroke="#404040" points="139.316,-145.694 138.165,-138.576 144.293,-134.775 145.444,-141.894 139.316,-145.694"/>
<text text-anchor="middle" x="148" y="-156" font-family="Helvetica,sans-Serif" font-size="10.00"> &#45;map</text>
</g>
<!-- Node4 -->
<g id="node4" class="node"><title>Node4</title>
<polygon fill="white" stroke="#bfbfbf" points="164.5,-182.5 164.5,-250.5 320.5,-250.5 320.5,-182.5 164.5,-182.5"/>
<text text-anchor="start" x="172.5" y="-238.5" font-family="Helvetica,sans-Serif" font-size="10.00">ArrayList&lt; es.ull.esit.transports.</text>
<text text-anchor="middle" x="242.5" y="-227.5" font-family="Helvetica,sans-Serif" font-size="10.00">Transport &gt;</text>
<polyline fill="none" stroke="#bfbfbf" points="164.5,-220.5 320.5,-220.5 "/>
<text text-anchor="middle" x="242.5" y="-208.5" font-family="Helvetica,sans-Serif" font-size="10.00"> </text>
<polyline fill="none" stroke="#bfbfbf" points="164.5,-201.5 320.5,-201.5 "/>
<text text-anchor="middle" x="242.5" y="-189.5" font-family="Helvetica,sans-Serif" font-size="10.00"> </text>
</g>
<!-- Node4&#45;&gt;Node1 -->
<g id="edge3" class="edge"><title>Node4&#45;&gt;Node1</title>
<path fill="none" stroke="#404040" d="M227.07,-182.143C222.039,-171.268 216.225,-158.7 210.338,-145.973"/>
<polygon fill="none" stroke="#404040" points="210.201,-145.678 204.052,-141.912 205.163,-134.787 211.313,-138.553 210.201,-145.678"/>
<text text-anchor="middle" x="244.5" y="-156" font-family="Helvetica,sans-Serif" font-size="10.00"> &#45;transports</text>
</g>
<!-- Node5 -->
<g id="node5" class="node"><title>Node5</title>
<polygon fill="white" stroke="#bfbfbf" points="338.5,-188 338.5,-245 470.5,-245 470.5,-188 338.5,-188"/>
<text text-anchor="middle" x="404.5" y="-233" font-family="Helvetica,sans-Serif" font-size="10.00">MarkerManager&lt; Marker &gt;</text>
<polyline fill="none" stroke="#bfbfbf" points="338.5,-226 470.5,-226 "/>
<text text-anchor="middle" x="404.5" y="-214" font-family="Helvetica,sans-Serif" font-size="10.00"> </text>
<polyline fill="none" stroke="#bfbfbf" points="338.5,-207 470.5,-207 "/>
<text text-anchor="middle" x="404.5" y="-195" font-family="Helvetica,sans-Serif" font-size="10.00"> </text>
</g>
<!-- Node5&#45;&gt;Node1 -->
<g id="edge4" class="edge"><title>Node5&#45;&gt;Node1</title>
<path fill="none" stroke="#404040" d="M361.239,-187.85C332.577,-169.532 294.017,-144.887 259.379,-122.748"/>
<polygon fill="none" stroke="#404040" points="259.36,-122.737 252.15,-122.876 249.249,-116.274 256.459,-116.135 259.36,-122.737"/>
<text text-anchor="middle" x="361.5" y="-156" font-family="Helvetica,sans-Serif" font-size="10.00"> &#45;markerManager</text>
</g>
</g>
</svg>
