<?xml version="1.0" encoding="UTF-8" standalone="no"?>
<!DOCTYPE svg PUBLIC "-//W3C//DTD SVG 1.1//EN"
 "http://www.w3.org/Graphics/SVG/1.1/DTD/svg11.dtd">
<!-- Generated by graphviz version 2.38.0 (20140413.2041)
 -->
<!-- Title: es.ull.esit.transports.OilTanker Pages: 1 -->
<svg width="188pt" height="431pt"
 viewBox="0.00 0.00 187.50 431.00" xmlns="http://www.w3.org/2000/svg" xmlns:xlink="http://www.w3.org/1999/xlink">
<g id="graph0" class="graph" transform="scale(1 1) rotate(0) translate(4 427)">
<title>es.ull.esit.transports.OilTanker</title>
<polygon fill="white" stroke="none" points="-4,4 -4,-427 183.5,-427 183.5,4 -4,4"/>
<!-- Node1 -->
<g id="node1" class="node"><title>Node1</title>
<polygon fill="#bfbfbf" stroke="black" points="15,-0.5 15,-68.5 135,-68.5 135,-0.5 15,-0.5"/>
<text text-anchor="start" x="23" y="-56.5" font-family="Helvetica,sans-Serif" font-size="10.00">es.ull.esit.transports.Oil</text>
<text text-anchor="middle" x="75" y="-45.5" font-family="Helvetica,sans-Serif" font-size="10.00">Tanker</text>
<polyline fill="none" stroke="black" points="15,-38.5 135,-38.5 "/>
<text text-anchor="middle" x="75" y="-26.5" font-family="Helvetica,sans-Serif" font-size="10.00"> </text>
<polyline fill="none" stroke="black" points="15,-19.5 135,-19.5 "/>
<text text-anchor="start" x="23" y="-7.5" font-family="Helvetica,sans-Serif" font-size="10.00">+ OilTanker()</text>
</g>
<!-- Node2 -->
<g id="node2" class="node"><title>Node2</title>
<g id="a_node2"><a xlink:href="classes_1_1ull_1_1esit_1_1transports_1_1_transport.html" target="_top" xlink:title="Abstract class to represent a transport. ">
<polygon fill="white" stroke="black" points="0.5,-106.5 0.5,-295.5 149.5,-295.5 149.5,-106.5 0.5,-106.5"/>
<text text-anchor="middle" x="75" y="-283.5" font-family="Helvetica,sans-Serif" font-size="10.00">es.ull.esit.transports.Transport</text>
<polyline fill="none" stroke="black" points="0.5,-276.5 149.5,-276.5 "/>
<text text-anchor="start" x="8.5" y="-264.5" font-family="Helvetica,sans-Serif" font-size="10.00"># type</text>
<text text-anchor="start" x="8.5" y="-253.5" font-family="Helvetica,sans-Serif" font-size="10.00"># currentPathIndex</text>
<polyline fill="none" stroke="black" points="0.5,-246.5 149.5,-246.5 "/>
<text text-anchor="start" x="8.5" y="-234.5" font-family="Helvetica,sans-Serif" font-size="10.00">+ getType()</text>
<text text-anchor="start" x="8.5" y="-223.5" font-family="Helvetica,sans-Serif" font-size="10.00">+ getLatitude()</text>
<text text-anchor="start" x="8.5" y="-212.5" font-family="Helvetica,sans-Serif" font-size="10.00">+ getLongitude()</text>
<text text-anchor="start" x="8.5" y="-201.5" font-family="Helvetica,sans-Serif" font-size="10.00">+ move()</text>
<text text-anchor="start" x="8.5" y="-190.5" font-family="Helvetica,sans-Serif" font-size="10.00">+ toString()</text>
<text text-anchor="start" x="8.5" y="-179.5" font-family="Helvetica,sans-Serif" font-size="10.00">+ pathSize()</text>
<text text-anchor="start" x="8.5" y="-168.5" font-family="Helvetica,sans-Serif" font-size="10.00">+ getCurrentPathIndex()</text>
<text text-anchor="start" x="8.5" y="-157.5" font-family="Helvetica,sans-Serif" font-size="10.00">+ setStartLocation()</text>
<text text-anchor="start" x="8.5" y="-146.5" font-family="Helvetica,sans-Serif" font-size="10.00">+ setEndLocation()</text>
<text text-anchor="start" x="8.5" y="-135.5" font-family="Helvetica,sans-Serif" font-size="10.00">+ setCurrentLocation()</text>
<text text-anchor="start" x="8.5" y="-124.5" font-family="Helvetica,sans-Serif" font-size="10.00">+ setPath()</text>
<text text-anchor="start" x="8.5" y="-113.5" font-family="Helvetica,sans-Serif" font-size="10.00">&#45; assignLine()</text>
</a>
</g>
</g>
<!-- Node2&#45;&gt;Node1 -->
<g id="edge1" class="edge"><title>Node2&#45;&gt;Node1</title>
<path fill="none" stroke="midnightblue" d="M75,-95.9462C75,-86.2181 75,-76.9286 75,-68.6777"/>
<polygon fill="none" stroke="midnightblue" points="71.5001,-96.2174 75,-106.217 78.5001,-96.2175 71.5001,-96.2174"/>
</g>
<!-- Node3 -->
<g id="node3" class="node"><title>Node3</title>
<polygon fill="white" stroke="#bfbfbf" points="0,-365.5 0,-422.5 52,-422.5 52,-365.5 0,-365.5"/>
<text text-anchor="middle" x="26" y="-410.5" font-family="Helvetica,sans-Serif" font-size="10.00">Point2D</text>
<polyline fill="none" stroke="#bfbfbf" points="0,-403.5 52,-403.5 "/>
<text text-anchor="middle" x="26" y="-391.5" font-family="Helvetica,sans-Serif" font-size="10.00"> </text>
<polyline fill="none" stroke="#bfbfbf" points="0,-384.5 52,-384.5 "/>
<text text-anchor="middle" x="26" y="-372.5" font-family="Helvetica,sans-Serif" font-size="10.00"> </text>
</g>
<!-- Node3&#45;&gt;Node2 -->
<g id="edge2" class="edge"><title>Node3&#45;&gt;Node2</title>
<path fill="none" stroke="#404040" d="M23.726,-365.288C23.1247,-350.001 23.4464,-330.773 27,-314 27.4648,-311.806 27.9735,-309.602 28.5215,-307.391"/>
<polygon fill="none" stroke="#404040" points="28.5999,-307.108 26.3465,-300.258 31.8029,-295.543 34.0563,-302.393 28.5999,-307.108"/>
<text text-anchor="middle" x="65" y="-339" font-family="Helvetica,sans-Serif" font-size="10.00"> #currentLocation</text>
<text text-anchor="middle" x="65" y="-328" font-family="Helvetica,sans-Serif" font-size="10.00">#endLocation</text>
<text text-anchor="middle" x="65" y="-317" font-family="Helvetica,sans-Serif" font-size="10.00">#startLocation</text>
</g>
<!-- Node4 -->
<g id="node4" class="node"><title>Node4</title>
<polygon fill="white" stroke="#bfbfbf" points="70.5,-365.5 70.5,-422.5 179.5,-422.5 179.5,-365.5 70.5,-365.5"/>
<text text-anchor="middle" x="125" y="-410.5" font-family="Helvetica,sans-Serif" font-size="10.00">ArrayList&lt; Point2D &gt;</text>
<polyline fill="none" stroke="#bfbfbf" points="70.5,-403.5 179.5,-403.5 "/>
<text text-anchor="middle" x="125" y="-391.5" font-family="Helvetica,sans-Serif" font-size="10.00"> </text>
<polyline fill="none" stroke="#bfbfbf" points="70.5,-384.5 179.5,-384.5 "/>
<text text-anchor="middle" x="125" y="-372.5" font-family="Helvetica,sans-Serif" font-size="10.00"> </text>
</g>
<!-- Node4&#45;&gt;Node2 -->
<g id="edge3" class="edge"><title>Node4&#45;&gt;Node2</title>
<path fill="none" stroke="#404040" d="M117.73,-365.227C113.639,-349.601 108.244,-328.99 102.669,-307.696"/>
<polygon fill="none" stroke="#404040" points="102.6,-307.431 97.2108,-302.64 99.5609,-295.822 104.95,-300.614 102.6,-307.431"/>
<text text-anchor="middle" x="127" y="-328" font-family="Helvetica,sans-Serif" font-size="10.00"> #path</text>
</g>
</g>
</svg>
