<?xml version="1.0" encoding="UTF-8" standalone="no"?>
<!DOCTYPE svg PUBLIC "-//W3C//DTD SVG 1.1//EN"
 "http://www.w3.org/Graphics/SVG/1.1/DTD/svg11.dtd">
<!-- Generated by graphviz version 2.38.0 (20140413.2041)
 -->
<!-- Title: es.ull.esit.ConsoleMain Pages: 1 -->
<svg width="164pt" height="193pt"
 viewBox="0.00 0.00 164.00 193.00" xmlns="http://www.w3.org/2000/svg" xmlns:xlink="http://www.w3.org/1999/xlink">
<g id="graph0" class="graph" transform="scale(1 1) rotate(0) translate(4 189)">
<title>es.ull.esit.ConsoleMain</title>
<polygon fill="white" stroke="none" points="-4,4 -4,-189 160,-189 160,4 -4,4"/>
<!-- Node1 -->
<g id="node1" class="node"><title>Node1</title>
<polygon fill="#bfbfbf" stroke="black" points="3.5,-0.5 3.5,-68.5 152.5,-68.5 152.5,-0.5 3.5,-0.5"/>
<text text-anchor="middle" x="78" y="-56.5" font-family="Helvetica,sans-Serif" font-size="10.00">es.ull.esit.ConsoleMain</text>
<polyline fill="none" stroke="black" points="3.5,-49.5 152.5,-49.5 "/>
<text text-anchor="start" x="11.5" y="-37.5" font-family="Helvetica,sans-Serif" font-size="10.00">+ N_TRANSPORTS</text>
<polyline fill="none" stroke="black" points="3.5,-30.5 152.5,-30.5 "/>
<text text-anchor="start" x="11.5" y="-18.5" font-family="Helvetica,sans-Serif" font-size="10.00">+ main()</text>
<text text-anchor="start" x="11.5" y="-7.5" font-family="Helvetica,sans-Serif" font-size="10.00">&#45; generateRandomTransports()</text>
</g>
<!-- Node2 -->
<g id="node2" class="node"><title>Node2</title>
<polygon fill="white" stroke="#bfbfbf" points="0,-116.5 0,-184.5 156,-184.5 156,-116.5 0,-116.5"/>
<text text-anchor="start" x="8" y="-172.5" font-family="Helvetica,sans-Serif" font-size="10.00">ArrayList&lt; es.ull.esit.transports.</text>
<text text-anchor="middle" x="78" y="-161.5" font-family="Helvetica,sans-Serif" font-size="10.00">Transport &gt;</text>
<polyline fill="none" stroke="#bfbfbf" points="0,-154.5 156,-154.5 "/>
<text text-anchor="middle" x="78" y="-142.5" font-family="Helvetica,sans-Serif" font-size="10.00"> </text>
<polyline fill="none" stroke="#bfbfbf" points="0,-135.5 156,-135.5 "/>
<text text-anchor="middle" x="78" y="-123.5" font-family="Helvetica,sans-Serif" font-size="10.00"> </text>
</g>
<!-- Node2&#45;&gt;Node1 -->
<g id="edge1" class="edge"><title>Node2&#45;&gt;Node1</title>
<path fill="none" stroke="#404040" d="M78,-116.22C78,-105.099 78,-92.5117 78,-80.6422"/>
<polygon fill="none" stroke="#404040" points="78.0001,-80.6243 74,-74.6243 78,-68.6243 82,-74.6242 78.0001,-80.6243"/>
<text text-anchor="middle" x="104.5" y="-90" font-family="Helvetica,sans-Serif" font-size="10.00"> +transports</text>
</g>
</g>
</svg>
