<?xml version="1.0" encoding="UTF-8" standalone="no"?>
<!DOCTYPE svg PUBLIC "-//W3C//DTD SVG 1.1//EN"
 "http://www.w3.org/Graphics/SVG/1.1/DTD/svg11.dtd">
<!-- Generated by graphviz version 2.38.0 (20140413.2041)
 -->
<!-- Title: es.ull.esit.GeoMap Pages: 1 -->
<svg width="329pt" height="248pt"
 viewBox="0.00 0.00 328.50 248.00" xmlns="http://www.w3.org/2000/svg" xmlns:xlink="http://www.w3.org/1999/xlink">
<g id="graph0" class="graph" transform="scale(1 1) rotate(0) translate(4 244)">
<title>es.ull.esit.GeoMap</title>
<polygon fill="white" stroke="none" points="-4,4 -4,-244 324.5,-244 324.5,4 -4,4"/>
<!-- Node1 -->
<g id="node1" class="node"><title>Node1</title>
<polygon fill="#bfbfbf" stroke="black" points="33,-0.5 33,-123.5 182,-123.5 182,-0.5 33,-0.5"/>
<text text-anchor="middle" x="107.5" y="-111.5" font-family="Helvetica,sans-Serif" font-size="10.00">es.ull.esit.GeoMap</text>
<polyline fill="none" stroke="black" points="33,-104.5 182,-104.5 "/>
<text text-anchor="start" x="41" y="-92.5" font-family="Helvetica,sans-Serif" font-size="10.00">+ N_TRANSPORTS</text>
<text text-anchor="start" x="41" y="-81.5" font-family="Helvetica,sans-Serif" font-size="10.00">&#45; mapWidth</text>
<text text-anchor="start" x="41" y="-70.5" font-family="Helvetica,sans-Serif" font-size="10.00">&#45; mapHeight</text>
<polyline fill="none" stroke="black" points="33,-63.5 182,-63.5 "/>
<text text-anchor="start" x="41" y="-51.5" font-family="Helvetica,sans-Serif" font-size="10.00">+ setup()</text>
<text text-anchor="start" x="41" y="-40.5" font-family="Helvetica,sans-Serif" font-size="10.00">+ setMarkers()</text>
<text text-anchor="start" x="41" y="-29.5" font-family="Helvetica,sans-Serif" font-size="10.00">+ draw()</text>
<text text-anchor="start" x="41" y="-18.5" font-family="Helvetica,sans-Serif" font-size="10.00">+ main()</text>
<text text-anchor="start" x="41" y="-7.5" font-family="Helvetica,sans-Serif" font-size="10.00">&#45; generateRandomTransports()</text>
</g>
<!-- Node2 -->
<g id="node2" class="node"><title>Node2</title>
<polygon fill="white" stroke="#bfbfbf" points="0,-177 0,-234 51,-234 51,-177 0,-177"/>
<text text-anchor="middle" x="25.5" y="-222" font-family="Helvetica,sans-Serif" font-size="10.00">PApplet</text>
<polyline fill="none" stroke="#bfbfbf" points="0,-215 51,-215 "/>
<text text-anchor="middle" x="25.5" y="-203" font-family="Helvetica,sans-Serif" font-size="10.00"> </text>
<polyline fill="none" stroke="#bfbfbf" points="0,-196 51,-196 "/>
<text text-anchor="middle" x="25.5" y="-184" font-family="Helvetica,sans-Serif" font-size="10.00"> </text>
</g>
<!-- Node2&#45;&gt;Node1 -->
<g id="edge1" class="edge"><title>Node2&#45;&gt;Node1</title>
<path fill="none" stroke="midnightblue" d="M46.7027,-167.912C54.5316,-154.403 63.6278,-138.706 72.3617,-123.635"/>
<polygon fill="none" stroke="midnightblue" points="43.4908,-166.474 41.5051,-176.881 49.5474,-169.984 43.4908,-166.474"/>
</g>
<!-- Node3 -->
<g id="node3" class="node"><title>Node3</title>
<polygon fill="white" stroke="#bfbfbf" points="69,-177 69,-234 146,-234 146,-177 69,-177"/>
<text text-anchor="middle" x="107.5" y="-222" font-family="Helvetica,sans-Serif" font-size="10.00">UnfoldingMap</text>
<polyline fill="none" stroke="#bfbfbf" points="69,-215 146,-215 "/>
<text text-anchor="middle" x="107.5" y="-203" font-family="Helvetica,sans-Serif" font-size="10.00"> </text>
<polyline fill="none" stroke="#bfbfbf" points="69,-196 146,-196 "/>
<text text-anchor="middle" x="107.5" y="-184" font-family="Helvetica,sans-Serif" font-size="10.00"> </text>
</g>
<!-- Node3&#45;&gt;Node1 -->
<g id="edge2" class="edge"><title>Node3&#45;&gt;Node1</title>
<path fill="none" stroke="#404040" d="M107.5,-176.881C107.5,-165.006 107.5,-150.508 107.5,-135.889"/>
<polygon fill="none" stroke="#404040" points="107.5,-135.635 103.5,-129.635 107.5,-123.635 111.5,-129.635 107.5,-135.635"/>
<text text-anchor="middle" x="120" y="-145" font-family="Helvetica,sans-Serif" font-size="10.00"> &#45;map</text>
</g>
<!-- Node4 -->
<g id="node4" class="node"><title>Node4</title>
<polygon fill="white" stroke="#bfbfbf" points="164.5,-171.5 164.5,-239.5 320.5,-239.5 320.5,-171.5 164.5,-171.5"/>
<text text-anchor="start" x="172.5" y="-227.5" font-family="Helvetica,sans-Serif" font-size="10.00">ArrayList&lt; es.ull.esit.transports.</text>
<text text-anchor="middle" x="242.5" y="-216.5" font-family="Helvetica,sans-Serif" font-size="10.00">Transport &gt;</text>
<polyline fill="none" stroke="#bfbfbf" points="164.5,-209.5 320.5,-209.5 "/>
<text text-anchor="middle" x="242.5" y="-197.5" font-family="Helvetica,sans-Serif" font-size="10.00"> </text>
<polyline fill="none" stroke="#bfbfbf" points="164.5,-190.5 320.5,-190.5 "/>
<text text-anchor="middle" x="242.5" y="-178.5" font-family="Helvetica,sans-Serif" font-size="10.00"> </text>
</g>
<!-- Node4&#45;&gt;Node1 -->
<g id="edge3" class="edge"><title>Node4&#45;&gt;Node1</title>
<path fill="none" stroke="#404040" d="M210.848,-171.325C199.725,-159.665 186.771,-146.088 173.872,-132.568"/>
<polygon fill="none" stroke="#404040" points="173.707,-132.395 166.671,-130.815 165.424,-123.713 172.46,-125.293 173.707,-132.395"/>
<text text-anchor="middle" x="216.5" y="-145" font-family="Helvetica,sans-Serif" font-size="10.00"> &#45;transports</text>
</g>
</g>
</svg>
