<?xml version="1.0" encoding="UTF-8" standalone="no"?>
<!DOCTYPE svg PUBLIC "-//W3C//DTD SVG 1.1//EN"
 "http://www.w3.org/Graphics/SVG/1.1/DTD/svg11.dtd">
<!-- Generated by graphviz version 2.38.0 (20140413.2041)
 -->
<!-- Title: es.ull.esit.transports.Freighter Pages: 1 -->
<svg width="188pt" height="398pt"
 viewBox="0.00 0.00 187.50 398.00" xmlns="http://www.w3.org/2000/svg" xmlns:xlink="http://www.w3.org/1999/xlink">
<g id="graph0" class="graph" transform="scale(1 1) rotate(0) translate(4 394)">
<title>es.ull.esit.transports.Freighter</title>
<polygon fill="white" stroke="none" points="-4,4 -4,-394 183.5,-394 183.5,4 -4,4"/>
<!-- Node1 -->
<g id="node1" class="node"><title>Node1</title>
<polygon fill="#bfbfbf" stroke="black" points="2,-0.5 2,-57.5 148,-57.5 148,-0.5 2,-0.5"/>
<text text-anchor="middle" x="75" y="-45.5" font-family="Helvetica,sans-Serif" font-size="10.00">es.ull.esit.transports.Freighter</text>
<polyline fill="none" stroke="black" points="2,-38.5 148,-38.5 "/>
<text text-anchor="middle" x="75" y="-26.5" font-family="Helvetica,sans-Serif" font-size="10.00"> </text>
<polyline fill="none" stroke="black" points="2,-19.5 148,-19.5 "/>
<text text-anchor="start" x="10" y="-7.5" font-family="Helvetica,sans-Serif" font-size="10.00">+ Freighter()</text>
</g>
<!-- Node2 -->
<g id="node2" class="node"><title>Node2</title>
<g id="a_node2"><a xlink:href="classes_1_1ull_1_1esit_1_1transports_1_1_transport.html" target="_top" xlink:title="Abstract class to represent a transport. ">
<polygon fill="white" stroke="black" points="0.5,-95.5 0.5,-262.5 149.5,-262.5 149.5,-95.5 0.5,-95.5"/>
<text text-anchor="middle" x="75" y="-250.5" font-family="Helvetica,sans-Serif" font-size="10.00">es.ull.esit.transports.Transport</text>
<polyline fill="none" stroke="black" points="0.5,-243.5 149.5,-243.5 "/>
<text text-anchor="start" x="8.5" y="-231.5" font-family="Helvetica,sans-Serif" font-size="10.00"># type</text>
<text text-anchor="start" x="8.5" y="-220.5" font-family="Helvetica,sans-Serif" font-size="10.00"># currentPathIndex</text>
<text text-anchor="start" x="8.5" y="-209.5" font-family="Helvetica,sans-Serif" font-size="10.00">&#45; N_INCREMENT</text>
<polyline fill="none" stroke="black" points="0.5,-202.5 149.5,-202.5 "/>
<text text-anchor="start" x="8.5" y="-190.5" font-family="Helvetica,sans-Serif" font-size="10.00">+ getType()</text>
<text text-anchor="start" x="8.5" y="-179.5" font-family="Helvetica,sans-Serif" font-size="10.00">+ getLatitude()</text>
<text text-anchor="start" x="8.5" y="-168.5" font-family="Helvetica,sans-Serif" font-size="10.00">+ getLongitude()</text>
<text text-anchor="start" x="8.5" y="-157.5" font-family="Helvetica,sans-Serif" font-size="10.00">+ move()</text>
<text text-anchor="start" x="8.5" y="-146.5" font-family="Helvetica,sans-Serif" font-size="10.00">+ toString()</text>
<text text-anchor="start" x="8.5" y="-135.5" font-family="Helvetica,sans-Serif" font-size="10.00">+ setStartLocation()</text>
<text text-anchor="start" x="8.5" y="-124.5" font-family="Helvetica,sans-Serif" font-size="10.00">+ setEndLocation()</text>
<text text-anchor="start" x="8.5" y="-113.5" font-family="Helvetica,sans-Serif" font-size="10.00">+ setCurrentLocation()</text>
<text text-anchor="start" x="8.5" y="-102.5" font-family="Helvetica,sans-Serif" font-size="10.00">+ setPath()</text>
</a>
</g>
</g>
<!-- Node2&#45;&gt;Node1 -->
<g id="edge1" class="edge"><title>Node2&#45;&gt;Node1</title>
<path fill="none" stroke="midnightblue" d="M75,-85.2199C75,-75.2276 75,-65.7244 75,-57.507"/>
<polygon fill="none" stroke="midnightblue" points="71.5001,-85.3457 75,-95.3458 78.5001,-85.3458 71.5001,-85.3457"/>
</g>
<!-- Node3 -->
<g id="node3" class="node"><title>Node3</title>
<polygon fill="white" stroke="#bfbfbf" points="0,-332.5 0,-389.5 52,-389.5 52,-332.5 0,-332.5"/>
<text text-anchor="middle" x="26" y="-377.5" font-family="Helvetica,sans-Serif" font-size="10.00">Point2D</text>
<polyline fill="none" stroke="#bfbfbf" points="0,-370.5 52,-370.5 "/>
<text text-anchor="middle" x="26" y="-358.5" font-family="Helvetica,sans-Serif" font-size="10.00"> </text>
<polyline fill="none" stroke="#bfbfbf" points="0,-351.5 52,-351.5 "/>
<text text-anchor="middle" x="26" y="-339.5" font-family="Helvetica,sans-Serif" font-size="10.00"> </text>
</g>
<!-- Node3&#45;&gt;Node2 -->
<g id="edge2" class="edge"><title>Node3&#45;&gt;Node2</title>
<path fill="none" stroke="#404040" d="M23.4712,-332.231C22.7927,-316.928 23.122,-297.701 27,-281 27.505,-278.825 28.0614,-276.642 28.6638,-274.456"/>
<polygon fill="none" stroke="#404040" points="28.736,-274.222 26.6924,-267.307 32.29,-262.761 34.3336,-269.676 28.736,-274.222"/>
<text text-anchor="middle" x="65" y="-306" font-family="Helvetica,sans-Serif" font-size="10.00"> #currentLocation</text>
<text text-anchor="middle" x="65" y="-295" font-family="Helvetica,sans-Serif" font-size="10.00">#endLocation</text>
<text text-anchor="middle" x="65" y="-284" font-family="Helvetica,sans-Serif" font-size="10.00">#startLocation</text>
</g>
<!-- Node4 -->
<g id="node4" class="node"><title>Node4</title>
<polygon fill="white" stroke="#bfbfbf" points="70.5,-332.5 70.5,-389.5 179.5,-389.5 179.5,-332.5 70.5,-332.5"/>
<text text-anchor="middle" x="125" y="-377.5" font-family="Helvetica,sans-Serif" font-size="10.00">ArrayList&lt; Point2D &gt;</text>
<polyline fill="none" stroke="#bfbfbf" points="70.5,-370.5 179.5,-370.5 "/>
<text text-anchor="middle" x="125" y="-358.5" font-family="Helvetica,sans-Serif" font-size="10.00"> </text>
<polyline fill="none" stroke="#bfbfbf" points="70.5,-351.5 179.5,-351.5 "/>
<text text-anchor="middle" x="125" y="-339.5" font-family="Helvetica,sans-Serif" font-size="10.00"> </text>
</g>
<!-- Node4&#45;&gt;Node2 -->
<g id="edge3" class="edge"><title>Node4&#45;&gt;Node2</title>
<path fill="none" stroke="#404040" d="M117.297,-332.269C112.906,-316.46 107.117,-295.623 101.238,-274.456"/>
<polygon fill="none" stroke="#404040" points="101.182,-274.255 95.7219,-269.544 97.9701,-262.692 103.43,-267.403 101.182,-274.255"/>
<text text-anchor="middle" x="126" y="-295" font-family="Helvetica,sans-Serif" font-size="10.00"> #path</text>
</g>
</g>
</svg>
