<?xml version="1.0" encoding="UTF-8" standalone="no"?>
<!DOCTYPE svg PUBLIC "-//W3C//DTD SVG 1.1//EN"
 "http://www.w3.org/Graphics/SVG/1.1/DTD/svg11.dtd">
<!-- Generated by graphviz version 2.38.0 (20140413.2041)
 -->
<!-- Title: es.ull.esit.transports.Transport Pages: 1 -->
<svg width="188pt" height="292pt"
 viewBox="0.00 0.00 187.50 292.00" xmlns="http://www.w3.org/2000/svg" xmlns:xlink="http://www.w3.org/1999/xlink">
<g id="graph0" class="graph" transform="scale(1 1) rotate(0) translate(4 288)">
<title>es.ull.esit.transports.Transport</title>
<polygon fill="white" stroke="none" points="-4,4 -4,-288 183.5,-288 183.5,4 -4,4"/>
<!-- Node1 -->
<g id="node1" class="node"><title>Node1</title>
<polygon fill="#bfbfbf" stroke="black" points="0.5,-0.5 0.5,-156.5 149.5,-156.5 149.5,-0.5 0.5,-0.5"/>
<text text-anchor="middle" x="75" y="-144.5" font-family="Helvetica,sans-Serif" font-size="10.00">es.ull.esit.transports.Transport</text>
<polyline fill="none" stroke="black" points="0.5,-137.5 149.5,-137.5 "/>
<text text-anchor="start" x="8.5" y="-125.5" font-family="Helvetica,sans-Serif" font-size="10.00"># type</text>
<text text-anchor="start" x="8.5" y="-114.5" font-family="Helvetica,sans-Serif" font-size="10.00"># currentPathIndex</text>
<polyline fill="none" stroke="black" points="0.5,-107.5 149.5,-107.5 "/>
<text text-anchor="start" x="8.5" y="-95.5" font-family="Helvetica,sans-Serif" font-size="10.00">+ getType()</text>
<text text-anchor="start" x="8.5" y="-84.5" font-family="Helvetica,sans-Serif" font-size="10.00">+ getLatitude()</text>
<text text-anchor="start" x="8.5" y="-73.5" font-family="Helvetica,sans-Serif" font-size="10.00">+ getLongitude()</text>
<text text-anchor="start" x="8.5" y="-62.5" font-family="Helvetica,sans-Serif" font-size="10.00">+ move()</text>
<text text-anchor="start" x="8.5" y="-51.5" font-family="Helvetica,sans-Serif" font-size="10.00">+ setStartLocation()</text>
<text text-anchor="start" x="8.5" y="-40.5" font-family="Helvetica,sans-Serif" font-size="10.00">+ setEndLocation()</text>
<text text-anchor="start" x="8.5" y="-29.5" font-family="Helvetica,sans-Serif" font-size="10.00">+ setCurrentLocation()</text>
<text text-anchor="start" x="8.5" y="-18.5" font-family="Helvetica,sans-Serif" font-size="10.00">+ setPath()</text>
<text text-anchor="start" x="8.5" y="-7.5" font-family="Helvetica,sans-Serif" font-size="10.00">&#45; assignLine()</text>
</g>
<!-- Node2 -->
<g id="node2" class="node"><title>Node2</title>
<polygon fill="white" stroke="#bfbfbf" points="0,-226.5 0,-283.5 52,-283.5 52,-226.5 0,-226.5"/>
<text text-anchor="middle" x="26" y="-271.5" font-family="Helvetica,sans-Serif" font-size="10.00">Point2D</text>
<polyline fill="none" stroke="#bfbfbf" points="0,-264.5 52,-264.5 "/>
<text text-anchor="middle" x="26" y="-252.5" font-family="Helvetica,sans-Serif" font-size="10.00"> </text>
<polyline fill="none" stroke="#bfbfbf" points="0,-245.5 52,-245.5 "/>
<text text-anchor="middle" x="26" y="-233.5" font-family="Helvetica,sans-Serif" font-size="10.00"> </text>
</g>
<!-- Node2&#45;&gt;Node1 -->
<g id="edge1" class="edge"><title>Node2&#45;&gt;Node1</title>
<path fill="none" stroke="#404040" d="M23.3265,-226.197C22.6042,-210.883 22.9378,-191.657 27,-175 27.5605,-172.701 28.1843,-170.395 28.8636,-168.087"/>
<polygon fill="none" stroke="#404040" points="28.9075,-167.955 27.0011,-161 32.6874,-156.565 34.5939,-163.52 28.9075,-167.955"/>
<text text-anchor="middle" x="65" y="-200" font-family="Helvetica,sans-Serif" font-size="10.00"> #currentLocation</text>
<text text-anchor="middle" x="65" y="-189" font-family="Helvetica,sans-Serif" font-size="10.00">#endLocation</text>
<text text-anchor="middle" x="65" y="-178" font-family="Helvetica,sans-Serif" font-size="10.00">#startLocation</text>
</g>
<!-- Node3 -->
<g id="node3" class="node"><title>Node3</title>
<polygon fill="white" stroke="#bfbfbf" points="70.5,-226.5 70.5,-283.5 179.5,-283.5 179.5,-226.5 70.5,-226.5"/>
<text text-anchor="middle" x="125" y="-271.5" font-family="Helvetica,sans-Serif" font-size="10.00">ArrayList&lt; Point2D &gt;</text>
<polyline fill="none" stroke="#bfbfbf" points="70.5,-264.5 179.5,-264.5 "/>
<text text-anchor="middle" x="125" y="-252.5" font-family="Helvetica,sans-Serif" font-size="10.00"> </text>
<polyline fill="none" stroke="#bfbfbf" points="70.5,-245.5 179.5,-245.5 "/>
<text text-anchor="middle" x="125" y="-233.5" font-family="Helvetica,sans-Serif" font-size="10.00"> </text>
</g>
<!-- Node3&#45;&gt;Node1 -->
<g id="edge2" class="edge"><title>Node3&#45;&gt;Node1</title>
<path fill="none" stroke="#404040" d="M117.354,-226.188C113.165,-211.04 107.852,-191.974 103,-175 102.359,-172.757 101.708,-170.486 101.049,-168.194"/>
<polygon fill="none" stroke="#404040" points="101.035,-168.145 95.528,-163.489 97.7074,-156.615 103.214,-161.271 101.035,-168.145"/>
<text text-anchor="middle" x="127" y="-189" font-family="Helvetica,sans-Serif" font-size="10.00"> #path</text>
</g>
</g>
</svg>
