<?xml version="1.0" encoding="UTF-8" standalone="no"?>
<!DOCTYPE svg PUBLIC "-//W3C//DTD SVG 1.1//EN"
 "http://www.w3.org/Graphics/SVG/1.1/DTD/svg11.dtd">
<!-- Generated by graphviz version 2.38.0 (20140413.2041)
 -->
<!-- Title: es.ull.esit.utilities.LogFormatter Pages: 1 -->
<svg width="119pt" height="171pt"
 viewBox="0.00 0.00 119.00 171.00" xmlns="http://www.w3.org/2000/svg" xmlns:xlink="http://www.w3.org/1999/xlink">
<g id="graph0" class="graph" transform="scale(1 1) rotate(0) translate(4 167)">
<title>es.ull.esit.utilities.LogFormatter</title>
<polygon fill="white" stroke="none" points="-4,4 -4,-167 115,-167 115,4 -4,4"/>
<!-- Node1 -->
<g id="node1" class="node"><title>Node1</title>
<polygon fill="#bfbfbf" stroke="black" points="-7.10543e-15,-0.5 -7.10543e-15,-68.5 111,-68.5 111,-0.5 -7.10543e-15,-0.5"/>
<text text-anchor="start" x="8" y="-56.5" font-family="Helvetica,sans-Serif" font-size="10.00">es.ull.esit.utilities.Log</text>
<text text-anchor="middle" x="55.5" y="-45.5" font-family="Helvetica,sans-Serif" font-size="10.00">Formatter</text>
<polyline fill="none" stroke="black" points="-7.10543e-15,-38.5 111,-38.5 "/>
<text text-anchor="middle" x="55.5" y="-26.5" font-family="Helvetica,sans-Serif" font-size="10.00"> </text>
<polyline fill="none" stroke="black" points="-7.10543e-15,-19.5 111,-19.5 "/>
<text text-anchor="start" x="8" y="-7.5" font-family="Helvetica,sans-Serif" font-size="10.00">+ format()</text>
</g>
<!-- Node2 -->
<g id="node2" class="node"><title>Node2</title>
<polygon fill="white" stroke="#bfbfbf" points="11,-105.5 11,-162.5 100,-162.5 100,-105.5 11,-105.5"/>
<text text-anchor="middle" x="55.5" y="-150.5" font-family="Helvetica,sans-Serif" font-size="10.00">SimpleFormatter</text>
<polyline fill="none" stroke="#bfbfbf" points="11,-143.5 100,-143.5 "/>
<text text-anchor="middle" x="55.5" y="-131.5" font-family="Helvetica,sans-Serif" font-size="10.00"> </text>
<polyline fill="none" stroke="#bfbfbf" points="11,-124.5 100,-124.5 "/>
<text text-anchor="middle" x="55.5" y="-112.5" font-family="Helvetica,sans-Serif" font-size="10.00"> </text>
</g>
<!-- Node2&#45;&gt;Node1 -->
<g id="edge1" class="edge"><title>Node2&#45;&gt;Node1</title>
<path fill="none" stroke="midnightblue" d="M55.5,-95.0631C55.5,-86.3933 55.5,-77.2431 55.5,-68.7855"/>
<polygon fill="none" stroke="midnightblue" points="52.0001,-95.3212 55.5,-105.321 59.0001,-95.3212 52.0001,-95.3212"/>
</g>
</g>
</svg>
