<?xml version="1.0" encoding="UTF-8" standalone="no"?>
<!DOCTYPE svg PUBLIC "-//W3C//DTD SVG 1.1//EN"
 "http://www.w3.org/Graphics/SVG/1.1/DTD/svg11.dtd">
<!-- Generated by graphviz version 2.38.0 (20140413.2041)
 -->
<!-- Title: es.ull.esit.transports.Transport Pages: 1 -->
<svg width="466pt" height="303pt"
 viewBox="0.00 0.00 466.00 303.00" xmlns="http://www.w3.org/2000/svg" xmlns:xlink="http://www.w3.org/1999/xlink">
<g id="graph0" class="graph" transform="scale(1 1) rotate(0) translate(4 299)">
<title>es.ull.esit.transports.Transport</title>
<polygon fill="white" stroke="none" points="-4,4 -4,-299 462,-299 462,4 -4,4"/>
<!-- Node1 -->
<g id="node1" class="node"><title>Node1</title>
<polygon fill="#bfbfbf" stroke="black" points="172.5,-105.5 172.5,-294.5 321.5,-294.5 321.5,-105.5 172.5,-105.5"/>
<text text-anchor="middle" x="247" y="-282.5" font-family="Helvetica,sans-Serif" font-size="10.00">es.ull.esit.transports.Transport</text>
<polyline fill="none" stroke="black" points="172.5,-275.5 321.5,-275.5 "/>
<text text-anchor="start" x="180.5" y="-263.5" font-family="Helvetica,sans-Serif" font-size="10.00"># type</text>
<text text-anchor="start" x="180.5" y="-252.5" font-family="Helvetica,sans-Serif" font-size="10.00"># startLocation</text>
<text text-anchor="start" x="180.5" y="-241.5" font-family="Helvetica,sans-Serif" font-size="10.00"># endLocation</text>
<text text-anchor="start" x="180.5" y="-230.5" font-family="Helvetica,sans-Serif" font-size="10.00"># currentLocation</text>
<text text-anchor="start" x="180.5" y="-219.5" font-family="Helvetica,sans-Serif" font-size="10.00"># path</text>
<text text-anchor="start" x="180.5" y="-208.5" font-family="Helvetica,sans-Serif" font-size="10.00"># currentPathIndex</text>
<polyline fill="none" stroke="black" points="172.5,-201.5 321.5,-201.5 "/>
<text text-anchor="start" x="180.5" y="-189.5" font-family="Helvetica,sans-Serif" font-size="10.00">+ getType()</text>
<text text-anchor="start" x="180.5" y="-178.5" font-family="Helvetica,sans-Serif" font-size="10.00">+ getLatitude()</text>
<text text-anchor="start" x="180.5" y="-167.5" font-family="Helvetica,sans-Serif" font-size="10.00">+ getLongitude()</text>
<text text-anchor="start" x="180.5" y="-156.5" font-family="Helvetica,sans-Serif" font-size="10.00">+ move()</text>
<text text-anchor="start" x="180.5" y="-145.5" font-family="Helvetica,sans-Serif" font-size="10.00">+ setStartLocation()</text>
<text text-anchor="start" x="180.5" y="-134.5" font-family="Helvetica,sans-Serif" font-size="10.00">+ setEndLocation()</text>
<text text-anchor="start" x="180.5" y="-123.5" font-family="Helvetica,sans-Serif" font-size="10.00">+ setCurrentLocation()</text>
<text text-anchor="start" x="180.5" y="-112.5" font-family="Helvetica,sans-Serif" font-size="10.00">+ setPath()</text>
</g>
<!-- Node2 -->
<g id="node2" class="node"><title>Node2</title>
<g id="a_node2"><a xlink:href="classes_1_1ull_1_1esit_1_1transports_1_1_cruise_ship.html" target="_top" xlink:title="{es.ull.esit.transports.CruiseShip\n||+ CruiseShip()\l}">
<polygon fill="white" stroke="black" points="0,-6 0,-63 156,-63 156,-6 0,-6"/>
<text text-anchor="middle" x="78" y="-51" font-family="Helvetica,sans-Serif" font-size="10.00">es.ull.esit.transports.CruiseShip</text>
<polyline fill="none" stroke="black" points="0,-44 156,-44 "/>
<text text-anchor="middle" x="78" y="-32" font-family="Helvetica,sans-Serif" font-size="10.00"> </text>
<polyline fill="none" stroke="black" points="0,-25 156,-25 "/>
<text text-anchor="start" x="8" y="-13" font-family="Helvetica,sans-Serif" font-size="10.00">+ CruiseShip()</text>
</a>
</g>
</g>
<!-- Node1&#45;&gt;Node2 -->
<g id="edge1" class="edge"><title>Node1&#45;&gt;Node2</title>
<path fill="none" stroke="midnightblue" d="M164.971,-119.64C143.969,-99.3217 122.763,-78.8061 106.549,-63.1199"/>
<polygon fill="none" stroke="midnightblue" points="162.762,-122.373 172.382,-126.811 167.629,-117.342 162.762,-122.373"/>
</g>
<!-- Node3 -->
<g id="node3" class="node"><title>Node3</title>
<g id="a_node3"><a xlink:href="classes_1_1ull_1_1esit_1_1transports_1_1_freighter.html" target="_top" xlink:title="{es.ull.esit.transports.Freighter\n||+ Freighter()\l}">
<polygon fill="white" stroke="black" points="174,-6 174,-63 320,-63 320,-6 174,-6"/>
<text text-anchor="middle" x="247" y="-51" font-family="Helvetica,sans-Serif" font-size="10.00">es.ull.esit.transports.Freighter</text>
<polyline fill="none" stroke="black" points="174,-44 320,-44 "/>
<text text-anchor="middle" x="247" y="-32" font-family="Helvetica,sans-Serif" font-size="10.00"> </text>
<polyline fill="none" stroke="black" points="174,-25 320,-25 "/>
<text text-anchor="start" x="182" y="-13" font-family="Helvetica,sans-Serif" font-size="10.00">+ Freighter()</text>
</a>
</g>
</g>
<!-- Node1&#45;&gt;Node3 -->
<g id="edge2" class="edge"><title>Node1&#45;&gt;Node3</title>
<path fill="none" stroke="midnightblue" d="M247,-95.3057C247,-83.5472 247,-72.4429 247,-63.068"/>
<polygon fill="none" stroke="midnightblue" points="243.5,-95.3129 247,-105.313 250.5,-95.313 243.5,-95.3129"/>
</g>
<!-- Node4 -->
<g id="node4" class="node"><title>Node4</title>
<g id="a_node4"><a xlink:href="classes_1_1ull_1_1esit_1_1transports_1_1_oil_tanker.html" target="_top" xlink:title="{es.ull.esit.transports.Oil\lTanker\n||+ OilTanker()\l}">
<polygon fill="white" stroke="black" points="338,-0.5 338,-68.5 458,-68.5 458,-0.5 338,-0.5"/>
<text text-anchor="start" x="346" y="-56.5" font-family="Helvetica,sans-Serif" font-size="10.00">es.ull.esit.transports.Oil</text>
<text text-anchor="middle" x="398" y="-45.5" font-family="Helvetica,sans-Serif" font-size="10.00">Tanker</text>
<polyline fill="none" stroke="black" points="338,-38.5 458,-38.5 "/>
<text text-anchor="middle" x="398" y="-26.5" font-family="Helvetica,sans-Serif" font-size="10.00"> </text>
<polyline fill="none" stroke="black" points="338,-19.5 458,-19.5 "/>
<text text-anchor="start" x="346" y="-7.5" font-family="Helvetica,sans-Serif" font-size="10.00">+ OilTanker()</text>
</a>
</g>
</g>
<!-- Node1&#45;&gt;Node4 -->
<g id="edge3" class="edge"><title>Node1&#45;&gt;Node4</title>
<path fill="none" stroke="midnightblue" d="M328.444,-110.814C342.326,-95.7827 355.939,-81.043 367.389,-68.6451"/>
<polygon fill="none" stroke="midnightblue" points="325.829,-108.487 321.615,-118.208 330.971,-113.236 325.829,-108.487"/>
</g>
</g>
</svg>
