<?xml version="1.0" encoding="UTF-8" standalone="no"?>
<!DOCTYPE svg PUBLIC "-//W3C//DTD SVG 1.1//EN"
 "http://www.w3.org/Graphics/SVG/1.1/DTD/svg11.dtd">
<!-- Generated by graphviz version 2.38.0 (20140413.2041)
 -->
<!-- Title: es.ull.esit.ConsoleMain Pages: 1 -->
<svg width="164pt" height="215pt"
 viewBox="0.00 0.00 164.00 215.00" xmlns="http://www.w3.org/2000/svg" xmlns:xlink="http://www.w3.org/1999/xlink">
<g id="graph0" class="graph" transform="scale(1 1) rotate(0) translate(4 211)">
<title>es.ull.esit.ConsoleMain</title>
<polygon fill="white" stroke="none" points="-4,4 -4,-211 160,-211 160,4 -4,4"/>
<!-- Node1 -->
<g id="node1" class="node"><title>Node1</title>
<polygon fill="#bfbfbf" stroke="black" points="3.5,-0.5 3.5,-90.5 152.5,-90.5 152.5,-0.5 3.5,-0.5"/>
<text text-anchor="middle" x="78" y="-78.5" font-family="Helvetica,sans-Serif" font-size="10.00">es.ull.esit.ConsoleMain</text>
<polyline fill="none" stroke="black" points="3.5,-71.5 152.5,-71.5 "/>
<text text-anchor="start" x="11.5" y="-59.5" font-family="Helvetica,sans-Serif" font-size="10.00">+ N_TRANSPORTS</text>
<polyline fill="none" stroke="black" points="3.5,-52.5 152.5,-52.5 "/>
<text text-anchor="start" x="11.5" y="-40.5" font-family="Helvetica,sans-Serif" font-size="10.00">+ ConsoleMain()</text>
<text text-anchor="start" x="11.5" y="-29.5" font-family="Helvetica,sans-Serif" font-size="10.00">+ getTransports()</text>
<text text-anchor="start" x="11.5" y="-18.5" font-family="Helvetica,sans-Serif" font-size="10.00">+ main()</text>
<text text-anchor="start" x="11.5" y="-7.5" font-family="Helvetica,sans-Serif" font-size="10.00">&#45; generateRandomTransports()</text>
</g>
<!-- Node2 -->
<g id="node2" class="node"><title>Node2</title>
<polygon fill="white" stroke="#bfbfbf" points="0,-138.5 0,-206.5 156,-206.5 156,-138.5 0,-138.5"/>
<text text-anchor="start" x="8" y="-194.5" font-family="Helvetica,sans-Serif" font-size="10.00">ArrayList&lt; es.ull.esit.transports.</text>
<text text-anchor="middle" x="78" y="-183.5" font-family="Helvetica,sans-Serif" font-size="10.00">Transport &gt;</text>
<polyline fill="none" stroke="#bfbfbf" points="0,-176.5 156,-176.5 "/>
<text text-anchor="middle" x="78" y="-164.5" font-family="Helvetica,sans-Serif" font-size="10.00"> </text>
<polyline fill="none" stroke="#bfbfbf" points="0,-157.5 156,-157.5 "/>
<text text-anchor="middle" x="78" y="-145.5" font-family="Helvetica,sans-Serif" font-size="10.00"> </text>
</g>
<!-- Node2&#45;&gt;Node1 -->
<g id="edge1" class="edge"><title>Node2&#45;&gt;Node1</title>
<path fill="none" stroke="#404040" d="M78,-138.33C78,-127.373 78,-114.86 78,-102.671"/>
<polygon fill="none" stroke="#404040" points="78.0001,-102.66 74,-96.6597 78,-90.6596 82,-96.6596 78.0001,-102.66"/>
<text text-anchor="middle" x="103" y="-112" font-family="Helvetica,sans-Serif" font-size="10.00"> &#45;transports</text>
</g>
</g>
</svg>
