<?xml version="1.0" encoding="UTF-8" standalone="no"?>
<!DOCTYPE svg PUBLIC "-//W3C//DTD SVG 1.1//EN"
 "http://www.w3.org/Graphics/SVG/1.1/DTD/svg11.dtd">
<!-- Generated by graphviz version 2.38.0 (20140413.2041)
 -->
<!-- Title: es.ull.esit.ConsoleMain Pages: 1 -->
<svg width="210pt" height="226pt"
 viewBox="0.00 0.00 209.50 226.00" xmlns="http://www.w3.org/2000/svg" xmlns:xlink="http://www.w3.org/1999/xlink">
<g id="graph0" class="graph" transform="scale(1 1) rotate(0) translate(4 222)">
<title>es.ull.esit.ConsoleMain</title>
<polygon fill="white" stroke="none" points="-4,4 -4,-222 205.5,-222 205.5,4 -4,4"/>
<!-- Node1 -->
<g id="node1" class="node"><title>Node1</title>
<polygon fill="#bfbfbf" stroke="black" points="46,-0.5 46,-101.5 195,-101.5 195,-0.5 46,-0.5"/>
<text text-anchor="middle" x="120.5" y="-89.5" font-family="Helvetica,sans-Serif" font-size="10.00">es.ull.esit.ConsoleMain</text>
<polyline fill="none" stroke="black" points="46,-82.5 195,-82.5 "/>
<text text-anchor="start" x="54" y="-70.5" font-family="Helvetica,sans-Serif" font-size="10.00">+ N_TRANSPORTS</text>
<polyline fill="none" stroke="black" points="46,-63.5 195,-63.5 "/>
<text text-anchor="start" x="54" y="-51.5" font-family="Helvetica,sans-Serif" font-size="10.00">+ main()</text>
<text text-anchor="start" x="54" y="-40.5" font-family="Helvetica,sans-Serif" font-size="10.00">+ defaultMenu()</text>
<text text-anchor="start" x="54" y="-29.5" font-family="Helvetica,sans-Serif" font-size="10.00">&#45; automaticMode()</text>
<text text-anchor="start" x="54" y="-18.5" font-family="Helvetica,sans-Serif" font-size="10.00">&#45; manualMode()</text>
<text text-anchor="start" x="54" y="-7.5" font-family="Helvetica,sans-Serif" font-size="10.00">&#45; generateRandomTransports()</text>
</g>
<!-- Node2 -->
<g id="node2" class="node"><title>Node2</title>
<polygon fill="white" stroke="#bfbfbf" points="0,-149.5 0,-217.5 133,-217.5 133,-149.5 0,-149.5"/>
<text text-anchor="start" x="8" y="-205.5" font-family="Helvetica,sans-Serif" font-size="10.00">List&lt; es.ull.esit.transports.</text>
<text text-anchor="middle" x="66.5" y="-194.5" font-family="Helvetica,sans-Serif" font-size="10.00">Transport &gt;</text>
<polyline fill="none" stroke="#bfbfbf" points="0,-187.5 133,-187.5 "/>
<text text-anchor="middle" x="66.5" y="-175.5" font-family="Helvetica,sans-Serif" font-size="10.00"> </text>
<polyline fill="none" stroke="#bfbfbf" points="0,-168.5 133,-168.5 "/>
<text text-anchor="middle" x="66.5" y="-156.5" font-family="Helvetica,sans-Serif" font-size="10.00"> </text>
</g>
<!-- Node2&#45;&gt;Node1 -->
<g id="edge1" class="edge"><title>Node2&#45;&gt;Node1</title>
<path fill="none" stroke="#404040" d="M80.2662,-149.232C84.8118,-138.247 90.0222,-125.655 95.1527,-113.256"/>
<polygon fill="none" stroke="#404040" points="95.2323,-113.063 93.8304,-105.99 99.8206,-101.975 101.223,-109.049 95.2323,-113.063"/>
<text text-anchor="middle" x="118.5" y="-123" font-family="Helvetica,sans-Serif" font-size="10.00"> #transports</text>
</g>
<!-- Node3 -->
<g id="node3" class="node"><title>Node3</title>
<polygon fill="white" stroke="#bfbfbf" points="151.5,-155 151.5,-212 197.5,-212 197.5,-155 151.5,-155"/>
<text text-anchor="middle" x="174.5" y="-200" font-family="Helvetica,sans-Serif" font-size="10.00">Logger</text>
<polyline fill="none" stroke="#bfbfbf" points="151.5,-193 197.5,-193 "/>
<text text-anchor="middle" x="174.5" y="-181" font-family="Helvetica,sans-Serif" font-size="10.00"> </text>
<polyline fill="none" stroke="#bfbfbf" points="151.5,-174 197.5,-174 "/>
<text text-anchor="middle" x="174.5" y="-162" font-family="Helvetica,sans-Serif" font-size="10.00"> </text>
</g>
<!-- Node3&#45;&gt;Node1 -->
<g id="edge2" class="edge"><title>Node3&#45;&gt;Node1</title>
<path fill="none" stroke="#404040" d="M163.048,-154.824C157.941,-142.483 151.709,-127.421 145.606,-112.672"/>
<polygon fill="none" stroke="#404040" points="145.573,-112.593 139.583,-108.579 140.985,-101.505 146.975,-105.52 145.573,-112.593"/>
<text text-anchor="middle" x="177" y="-123" font-family="Helvetica,sans-Serif" font-size="10.00"> &#45;LOGGER</text>
</g>
</g>
</svg>
