<?xml version="1.0" encoding="UTF-8" standalone="no"?>
<!DOCTYPE svg PUBLIC "-//W3C//DTD SVG 1.1//EN"
 "http://www.w3.org/Graphics/SVG/1.1/DTD/svg11.dtd">
<!-- Generated by graphviz version 2.38.0 (20140413.2041)
 -->
<!-- Title: es.ull.esit.builder.TransportBuilder Pages: 1 -->
<svg width="188pt" height="430pt"
 viewBox="0.00 0.00 187.50 430.00" xmlns="http://www.w3.org/2000/svg" xmlns:xlink="http://www.w3.org/1999/xlink">
<g id="graph0" class="graph" transform="scale(1 1) rotate(0) translate(4 426)">
<title>es.ull.esit.builder.TransportBuilder</title>
<polygon fill="white" stroke="none" points="-4,4 -4,-426 183.5,-426 183.5,4 -4,4"/>
<!-- Node1 -->
<g id="node1" class="node"><title>Node1</title>
<polygon fill="#bfbfbf" stroke="black" points="8,-0.5 8,-79.5 142,-79.5 142,-0.5 8,-0.5"/>
<text text-anchor="start" x="16" y="-67.5" font-family="Helvetica,sans-Serif" font-size="10.00">es.ull.esit.builder.Transport</text>
<text text-anchor="middle" x="75" y="-56.5" font-family="Helvetica,sans-Serif" font-size="10.00">Builder</text>
<polyline fill="none" stroke="black" points="8,-49.5 142,-49.5 "/>
<text text-anchor="middle" x="75" y="-37.5" font-family="Helvetica,sans-Serif" font-size="10.00"> </text>
<polyline fill="none" stroke="black" points="8,-30.5 142,-30.5 "/>
<text text-anchor="start" x="16" y="-18.5" font-family="Helvetica,sans-Serif" font-size="10.00">+ TransportBuilder()</text>
<text text-anchor="start" x="16" y="-7.5" font-family="Helvetica,sans-Serif" font-size="10.00">+ getBuild()</text>
</g>
<!-- Node2 -->
<g id="node2" class="node"><title>Node2</title>
<g id="a_node2"><a xlink:href="classes_1_1ull_1_1esit_1_1transports_1_1_transport.html" target="_top" xlink:title="Abstract class to represent a transport. ">
<polygon fill="white" stroke="black" points="0.5,-127.5 0.5,-294.5 149.5,-294.5 149.5,-127.5 0.5,-127.5"/>
<text text-anchor="middle" x="75" y="-282.5" font-family="Helvetica,sans-Serif" font-size="10.00">es.ull.esit.transports.Transport</text>
<polyline fill="none" stroke="black" points="0.5,-275.5 149.5,-275.5 "/>
<text text-anchor="start" x="8.5" y="-263.5" font-family="Helvetica,sans-Serif" font-size="10.00"># type</text>
<text text-anchor="start" x="8.5" y="-252.5" font-family="Helvetica,sans-Serif" font-size="10.00"># currentPathIndex</text>
<text text-anchor="start" x="8.5" y="-241.5" font-family="Helvetica,sans-Serif" font-size="10.00">&#45; N_INCREMENT</text>
<polyline fill="none" stroke="black" points="0.5,-234.5 149.5,-234.5 "/>
<text text-anchor="start" x="8.5" y="-222.5" font-family="Helvetica,sans-Serif" font-size="10.00">+ getType()</text>
<text text-anchor="start" x="8.5" y="-211.5" font-family="Helvetica,sans-Serif" font-size="10.00">+ getLatitude()</text>
<text text-anchor="start" x="8.5" y="-200.5" font-family="Helvetica,sans-Serif" font-size="10.00">+ getLongitude()</text>
<text text-anchor="start" x="8.5" y="-189.5" font-family="Helvetica,sans-Serif" font-size="10.00">+ move()</text>
<text text-anchor="start" x="8.5" y="-178.5" font-family="Helvetica,sans-Serif" font-size="10.00">+ toString()</text>
<text text-anchor="start" x="8.5" y="-167.5" font-family="Helvetica,sans-Serif" font-size="10.00">+ setStartLocation()</text>
<text text-anchor="start" x="8.5" y="-156.5" font-family="Helvetica,sans-Serif" font-size="10.00">+ setEndLocation()</text>
<text text-anchor="start" x="8.5" y="-145.5" font-family="Helvetica,sans-Serif" font-size="10.00">+ setCurrentLocation()</text>
<text text-anchor="start" x="8.5" y="-134.5" font-family="Helvetica,sans-Serif" font-size="10.00">+ setPath()</text>
</a>
</g>
</g>
<!-- Node2&#45;&gt;Node1 -->
<g id="edge1" class="edge"><title>Node2&#45;&gt;Node1</title>
<path fill="none" stroke="#404040" d="M75,-127.48C75,-115.305 75,-103.074 75,-91.8011"/>
<polygon fill="none" stroke="#404040" points="75.0001,-91.5337 71,-85.5338 75,-79.5337 79,-85.5337 75.0001,-91.5337"/>
<text text-anchor="middle" x="97.5" y="-101" font-family="Helvetica,sans-Serif" font-size="10.00"> &#45;transport</text>
</g>
<!-- Node3 -->
<g id="node3" class="node"><title>Node3</title>
<polygon fill="white" stroke="#bfbfbf" points="0,-364.5 0,-421.5 52,-421.5 52,-364.5 0,-364.5"/>
<text text-anchor="middle" x="26" y="-409.5" font-family="Helvetica,sans-Serif" font-size="10.00">Point2D</text>
<polyline fill="none" stroke="#bfbfbf" points="0,-402.5 52,-402.5 "/>
<text text-anchor="middle" x="26" y="-390.5" font-family="Helvetica,sans-Serif" font-size="10.00"> </text>
<polyline fill="none" stroke="#bfbfbf" points="0,-383.5 52,-383.5 "/>
<text text-anchor="middle" x="26" y="-371.5" font-family="Helvetica,sans-Serif" font-size="10.00"> </text>
</g>
<!-- Node3&#45;&gt;Node2 -->
<g id="edge2" class="edge"><title>Node3&#45;&gt;Node2</title>
<path fill="none" stroke="#404040" d="M23.4712,-364.231C22.7927,-348.928 23.122,-329.701 27,-313 27.505,-310.825 28.0614,-308.642 28.6638,-306.456"/>
<polygon fill="none" stroke="#404040" points="28.736,-306.222 26.6924,-299.307 32.29,-294.761 34.3336,-301.676 28.736,-306.222"/>
<text text-anchor="middle" x="65" y="-338" font-family="Helvetica,sans-Serif" font-size="10.00"> #currentLocation</text>
<text text-anchor="middle" x="65" y="-327" font-family="Helvetica,sans-Serif" font-size="10.00">#endLocation</text>
<text text-anchor="middle" x="65" y="-316" font-family="Helvetica,sans-Serif" font-size="10.00">#startLocation</text>
</g>
<!-- Node4 -->
<g id="node4" class="node"><title>Node4</title>
<polygon fill="white" stroke="#bfbfbf" points="70.5,-364.5 70.5,-421.5 179.5,-421.5 179.5,-364.5 70.5,-364.5"/>
<text text-anchor="middle" x="125" y="-409.5" font-family="Helvetica,sans-Serif" font-size="10.00">ArrayList&lt; Point2D &gt;</text>
<polyline fill="none" stroke="#bfbfbf" points="70.5,-402.5 179.5,-402.5 "/>
<text text-anchor="middle" x="125" y="-390.5" font-family="Helvetica,sans-Serif" font-size="10.00"> </text>
<polyline fill="none" stroke="#bfbfbf" points="70.5,-383.5 179.5,-383.5 "/>
<text text-anchor="middle" x="125" y="-371.5" font-family="Helvetica,sans-Serif" font-size="10.00"> </text>
</g>
<!-- Node4&#45;&gt;Node2 -->
<g id="edge3" class="edge"><title>Node4&#45;&gt;Node2</title>
<path fill="none" stroke="#404040" d="M117.297,-364.269C112.906,-348.46 107.117,-327.623 101.238,-306.456"/>
<polygon fill="none" stroke="#404040" points="101.182,-306.255 95.7219,-301.544 97.9701,-294.692 103.43,-299.403 101.182,-306.255"/>
<text text-anchor="middle" x="126" y="-327" font-family="Helvetica,sans-Serif" font-size="10.00"> #path</text>
</g>
</g>
</svg>
