<?xml version="1.0" encoding="UTF-8" standalone="no"?>
<!DOCTYPE svg PUBLIC "-//W3C//DTD SVG 1.1//EN"
 "http://www.w3.org/Graphics/SVG/1.1/DTD/svg11.dtd">
<!-- Generated by graphviz version 2.38.0 (20140413.2041)
 -->
<!-- Title: es.ull.esit.transports.CruiseShip Pages: 1 -->
<svg width="191pt" height="398pt"
 viewBox="0.00 0.00 190.50 398.00" xmlns="http://www.w3.org/2000/svg" xmlns:xlink="http://www.w3.org/1999/xlink">
<g id="graph0" class="graph" transform="scale(1 1) rotate(0) translate(4 394)">
<title>es.ull.esit.transports.CruiseShip</title>
<polygon fill="white" stroke="none" points="-4,4 -4,-394 186.5,-394 186.5,4 -4,4"/>
<!-- Node1 -->
<g id="node1" class="node"><title>Node1</title>
<polygon fill="#bfbfbf" stroke="black" points="0,-0.5 0,-57.5 156,-57.5 156,-0.5 0,-0.5"/>
<text text-anchor="middle" x="78" y="-45.5" font-family="Helvetica,sans-Serif" font-size="10.00">es.ull.esit.transports.CruiseShip</text>
<polyline fill="none" stroke="black" points="0,-38.5 156,-38.5 "/>
<text text-anchor="middle" x="78" y="-26.5" font-family="Helvetica,sans-Serif" font-size="10.00"> </text>
<polyline fill="none" stroke="black" points="0,-19.5 156,-19.5 "/>
<text text-anchor="start" x="8" y="-7.5" font-family="Helvetica,sans-Serif" font-size="10.00">+ CruiseShip()</text>
</g>
<!-- Node2 -->
<g id="node2" class="node"><title>Node2</title>
<g id="a_node2"><a xlink:href="classes_1_1ull_1_1esit_1_1transports_1_1_transport.html" target="_top" xlink:title="Abstract class to represent a transport. ">
<polygon fill="white" stroke="black" points="3.5,-95.5 3.5,-262.5 152.5,-262.5 152.5,-95.5 3.5,-95.5"/>
<text text-anchor="middle" x="78" y="-250.5" font-family="Helvetica,sans-Serif" font-size="10.00">es.ull.esit.transports.Transport</text>
<polyline fill="none" stroke="black" points="3.5,-243.5 152.5,-243.5 "/>
<text text-anchor="start" x="11.5" y="-231.5" font-family="Helvetica,sans-Serif" font-size="10.00"># type</text>
<text text-anchor="start" x="11.5" y="-220.5" font-family="Helvetica,sans-Serif" font-size="10.00"># currentPathIndex</text>
<text text-anchor="start" x="11.5" y="-209.5" font-family="Helvetica,sans-Serif" font-size="10.00">&#45; N_INCREMENT</text>
<polyline fill="none" stroke="black" points="3.5,-202.5 152.5,-202.5 "/>
<text text-anchor="start" x="11.5" y="-190.5" font-family="Helvetica,sans-Serif" font-size="10.00">+ getType()</text>
<text text-anchor="start" x="11.5" y="-179.5" font-family="Helvetica,sans-Serif" font-size="10.00">+ getLatitude()</text>
<text text-anchor="start" x="11.5" y="-168.5" font-family="Helvetica,sans-Serif" font-size="10.00">+ getLongitude()</text>
<text text-anchor="start" x="11.5" y="-157.5" font-family="Helvetica,sans-Serif" font-size="10.00">+ move()</text>
<text text-anchor="start" x="11.5" y="-146.5" font-family="Helvetica,sans-Serif" font-size="10.00">+ toString()</text>
<text text-anchor="start" x="11.5" y="-135.5" font-family="Helvetica,sans-Serif" font-size="10.00">+ setStartLocation()</text>
<text text-anchor="start" x="11.5" y="-124.5" font-family="Helvetica,sans-Serif" font-size="10.00">+ setEndLocation()</text>
<text text-anchor="start" x="11.5" y="-113.5" font-family="Helvetica,sans-Serif" font-size="10.00">+ setCurrentLocation()</text>
<text text-anchor="start" x="11.5" y="-102.5" font-family="Helvetica,sans-Serif" font-size="10.00">+ setPath()</text>
</a>
</g>
</g>
<!-- Node2&#45;&gt;Node1 -->
<g id="edge1" class="edge"><title>Node2&#45;&gt;Node1</title>
<path fill="none" stroke="midnightblue" d="M78,-85.2199C78,-75.2276 78,-65.7244 78,-57.507"/>
<polygon fill="none" stroke="midnightblue" points="74.5001,-85.3457 78,-95.3458 81.5001,-85.3458 74.5001,-85.3457"/>
</g>
<!-- Node3 -->
<g id="node3" class="node"><title>Node3</title>
<polygon fill="white" stroke="#bfbfbf" points="3,-332.5 3,-389.5 55,-389.5 55,-332.5 3,-332.5"/>
<text text-anchor="middle" x="29" y="-377.5" font-family="Helvetica,sans-Serif" font-size="10.00">Point2D</text>
<polyline fill="none" stroke="#bfbfbf" points="3,-370.5 55,-370.5 "/>
<text text-anchor="middle" x="29" y="-358.5" font-family="Helvetica,sans-Serif" font-size="10.00"> </text>
<polyline fill="none" stroke="#bfbfbf" points="3,-351.5 55,-351.5 "/>
<text text-anchor="middle" x="29" y="-339.5" font-family="Helvetica,sans-Serif" font-size="10.00"> </text>
</g>
<!-- Node3&#45;&gt;Node2 -->
<g id="edge2" class="edge"><title>Node3&#45;&gt;Node2</title>
<path fill="none" stroke="#404040" d="M26.4712,-332.231C25.7927,-316.928 26.122,-297.701 30,-281 30.505,-278.825 31.0614,-276.642 31.6638,-274.456"/>
<polygon fill="none" stroke="#404040" points="31.736,-274.222 29.6924,-267.307 35.29,-262.761 37.3336,-269.676 31.736,-274.222"/>
<text text-anchor="middle" x="68" y="-306" font-family="Helvetica,sans-Serif" font-size="10.00"> #currentLocation</text>
<text text-anchor="middle" x="68" y="-295" font-family="Helvetica,sans-Serif" font-size="10.00">#endLocation</text>
<text text-anchor="middle" x="68" y="-284" font-family="Helvetica,sans-Serif" font-size="10.00">#startLocation</text>
</g>
<!-- Node4 -->
<g id="node4" class="node"><title>Node4</title>
<polygon fill="white" stroke="#bfbfbf" points="73.5,-332.5 73.5,-389.5 182.5,-389.5 182.5,-332.5 73.5,-332.5"/>
<text text-anchor="middle" x="128" y="-377.5" font-family="Helvetica,sans-Serif" font-size="10.00">ArrayList&lt; Point2D &gt;</text>
<polyline fill="none" stroke="#bfbfbf" points="73.5,-370.5 182.5,-370.5 "/>
<text text-anchor="middle" x="128" y="-358.5" font-family="Helvetica,sans-Serif" font-size="10.00"> </text>
<polyline fill="none" stroke="#bfbfbf" points="73.5,-351.5 182.5,-351.5 "/>
<text text-anchor="middle" x="128" y="-339.5" font-family="Helvetica,sans-Serif" font-size="10.00"> </text>
</g>
<!-- Node4&#45;&gt;Node2 -->
<g id="edge3" class="edge"><title>Node4&#45;&gt;Node2</title>
<path fill="none" stroke="#404040" d="M120.297,-332.269C115.906,-316.46 110.117,-295.623 104.238,-274.456"/>
<polygon fill="none" stroke="#404040" points="104.182,-274.255 98.7219,-269.544 100.97,-262.692 106.43,-267.403 104.182,-274.255"/>
<text text-anchor="middle" x="129" y="-295" font-family="Helvetica,sans-Serif" font-size="10.00"> #path</text>
</g>
</g>
</svg>
