<?xml version="1.0" encoding="UTF-8" standalone="no"?>
<!DOCTYPE svg PUBLIC "-//W3C//DTD SVG 1.1//EN"
 "http://www.w3.org/Graphics/SVG/1.1/DTD/svg11.dtd">
<!-- Generated by graphviz version 2.38.0 (20140413.2041)
 -->
<!-- Title: es.ull.esit.maps.Map Pages: 1 -->
<svg width="154pt" height="193pt"
 viewBox="0.00 0.00 154.00 193.00" xmlns="http://www.w3.org/2000/svg" xmlns:xlink="http://www.w3.org/1999/xlink">
<g id="graph0" class="graph" transform="scale(1 1) rotate(0) translate(4 189)">
<title>es.ull.esit.maps.Map</title>
<polygon fill="white" stroke="none" points="-4,4 -4,-189 150,-189 150,4 -4,4"/>
<!-- Node1 -->
<g id="node1" class="node"><title>Node1</title>
<polygon fill="#bfbfbf" stroke="black" points="13,-0.5 13,-79.5 120,-79.5 120,-0.5 13,-0.5"/>
<text text-anchor="middle" x="66.5" y="-67.5" font-family="Helvetica,sans-Serif" font-size="10.00">es.ull.esit.maps.Map</text>
<polyline fill="none" stroke="black" points="13,-60.5 120,-60.5 "/>
<text text-anchor="start" x="21" y="-48.5" font-family="Helvetica,sans-Serif" font-size="10.00">&#45; mapWidth</text>
<text text-anchor="start" x="21" y="-37.5" font-family="Helvetica,sans-Serif" font-size="10.00">&#45; mapHeight</text>
<polyline fill="none" stroke="black" points="13,-30.5 120,-30.5 "/>
<text text-anchor="start" x="21" y="-18.5" font-family="Helvetica,sans-Serif" font-size="10.00">+ setup()</text>
<text text-anchor="start" x="21" y="-7.5" font-family="Helvetica,sans-Serif" font-size="10.00">+ draw()</text>
</g>
<!-- Node2 -->
<g id="node2" class="node"><title>Node2</title>
<polygon fill="white" stroke="#bfbfbf" points="0,-127.5 0,-184.5 51,-184.5 51,-127.5 0,-127.5"/>
<text text-anchor="middle" x="25.5" y="-172.5" font-family="Helvetica,sans-Serif" font-size="10.00">PApplet</text>
<polyline fill="none" stroke="#bfbfbf" points="0,-165.5 51,-165.5 "/>
<text text-anchor="middle" x="25.5" y="-153.5" font-family="Helvetica,sans-Serif" font-size="10.00"> </text>
<polyline fill="none" stroke="#bfbfbf" points="0,-146.5 51,-146.5 "/>
<text text-anchor="middle" x="25.5" y="-134.5" font-family="Helvetica,sans-Serif" font-size="10.00"> </text>
</g>
<!-- Node2&#45;&gt;Node1 -->
<g id="edge1" class="edge"><title>Node2&#45;&gt;Node1</title>
<path fill="none" stroke="midnightblue" d="M38.8404,-117.907C43.2581,-105.624 48.1831,-91.93 52.6389,-79.5406"/>
<polygon fill="none" stroke="midnightblue" points="35.5158,-116.809 35.425,-127.404 42.1028,-119.178 35.5158,-116.809"/>
</g>
<!-- Node3 -->
<g id="node3" class="node"><title>Node3</title>
<polygon fill="white" stroke="#bfbfbf" points="69,-127.5 69,-184.5 146,-184.5 146,-127.5 69,-127.5"/>
<text text-anchor="middle" x="107.5" y="-172.5" font-family="Helvetica,sans-Serif" font-size="10.00">UnfoldingMap</text>
<polyline fill="none" stroke="#bfbfbf" points="69,-165.5 146,-165.5 "/>
<text text-anchor="middle" x="107.5" y="-153.5" font-family="Helvetica,sans-Serif" font-size="10.00"> </text>
<polyline fill="none" stroke="#bfbfbf" points="69,-146.5 146,-146.5 "/>
<text text-anchor="middle" x="107.5" y="-134.5" font-family="Helvetica,sans-Serif" font-size="10.00"> </text>
</g>
<!-- Node3&#45;&gt;Node1 -->
<g id="edge2" class="edge"><title>Node3&#45;&gt;Node1</title>
<path fill="none" stroke="#404040" d="M97.575,-127.404C93.6195,-116.405 88.9405,-103.396 84.4302,-90.8548"/>
<polygon fill="none" stroke="#404040" points="84.4223,-90.8325 78.6277,-86.5402 80.3611,-79.5406 86.1556,-83.8328 84.4223,-90.8325"/>
<text text-anchor="middle" x="103" y="-101" font-family="Helvetica,sans-Serif" font-size="10.00"> &#45;map</text>
</g>
</g>
</svg>
