<?xml version="1.0" encoding="UTF-8" standalone="no"?>
<!DOCTYPE svg PUBLIC "-//W3C//DTD SVG 1.1//EN"
 "http://www.w3.org/Graphics/SVG/1.1/DTD/svg11.dtd">
<!-- Generated by graphviz version 2.38.0 (20140413.2041)
 -->
<!-- Title: es.ull.esit.ConsoleMain Pages: 1 -->
<svg width="226pt" height="292pt"
 viewBox="0.00 0.00 225.50 292.00" xmlns="http://www.w3.org/2000/svg" xmlns:xlink="http://www.w3.org/1999/xlink">
<g id="graph0" class="graph" transform="scale(1 1) rotate(0) translate(4 288)">
<title>es.ull.esit.ConsoleMain</title>
<polygon fill="white" stroke="none" points="-4,4 -4,-288 221.5,-288 221.5,4 -4,4"/>
<!-- Node1 -->
<g id="node1" class="node"><title>Node1</title>
<polygon fill="#bfbfbf" stroke="black" points="52,-0.5 52,-167.5 201,-167.5 201,-0.5 52,-0.5"/>
<text text-anchor="middle" x="126.5" y="-155.5" font-family="Helvetica,sans-Serif" font-size="10.00">es.ull.esit.ConsoleMain</text>
<polyline fill="none" stroke="black" points="52,-148.5 201,-148.5 "/>
<text text-anchor="start" x="60" y="-136.5" font-family="Helvetica,sans-Serif" font-size="10.00">+ LINE_SEPARATOR</text>
<text text-anchor="start" x="60" y="-125.5" font-family="Helvetica,sans-Serif" font-size="10.00">+ N_TRANSPORTS</text>
<polyline fill="none" stroke="black" points="52,-118.5 201,-118.5 "/>
<text text-anchor="start" x="60" y="-106.5" font-family="Helvetica,sans-Serif" font-size="10.00">+ main()</text>
<text text-anchor="start" x="60" y="-95.5" font-family="Helvetica,sans-Serif" font-size="10.00">+ defaultMenu()</text>
<text text-anchor="start" x="60" y="-84.5" font-family="Helvetica,sans-Serif" font-size="10.00">&#45; automaticMode()</text>
<text text-anchor="start" x="60" y="-73.5" font-family="Helvetica,sans-Serif" font-size="10.00">&#45; manualMode()</text>
<text text-anchor="start" x="60" y="-62.5" font-family="Helvetica,sans-Serif" font-size="10.00">&#45; generateRandomTransports()</text>
<text text-anchor="start" x="60" y="-51.5" font-family="Helvetica,sans-Serif" font-size="10.00">&#45; createShip()</text>
<text text-anchor="start" x="60" y="-40.5" font-family="Helvetica,sans-Serif" font-size="10.00">&#45; killShip()</text>
<text text-anchor="start" x="60" y="-29.5" font-family="Helvetica,sans-Serif" font-size="10.00">&#45; showShipStatus()</text>
<text text-anchor="start" x="60" y="-18.5" font-family="Helvetica,sans-Serif" font-size="10.00">&#45; updateShip()</text>
<text text-anchor="start" x="60" y="-7.5" font-family="Helvetica,sans-Serif" font-size="10.00">&#45; getSelectedShip()</text>
</g>
<!-- Node2 -->
<g id="node2" class="node"><title>Node2</title>
<polygon fill="white" stroke="#bfbfbf" points="0,-215.5 0,-283.5 133,-283.5 133,-215.5 0,-215.5"/>
<text text-anchor="start" x="8" y="-271.5" font-family="Helvetica,sans-Serif" font-size="10.00">List&lt; es.ull.esit.transports.</text>
<text text-anchor="middle" x="66.5" y="-260.5" font-family="Helvetica,sans-Serif" font-size="10.00">Transport &gt;</text>
<polyline fill="none" stroke="#bfbfbf" points="0,-253.5 133,-253.5 "/>
<text text-anchor="middle" x="66.5" y="-241.5" font-family="Helvetica,sans-Serif" font-size="10.00"> </text>
<polyline fill="none" stroke="#bfbfbf" points="0,-234.5 133,-234.5 "/>
<text text-anchor="middle" x="66.5" y="-222.5" font-family="Helvetica,sans-Serif" font-size="10.00"> </text>
</g>
<!-- Node2&#45;&gt;Node1 -->
<g id="edge1" class="edge"><title>Node2&#45;&gt;Node1</title>
<path fill="none" stroke="#404040" d="M63.9047,-215.286C63.9896,-205.691 64.902,-195.302 67.5,-186 68.1453,-183.69 68.8566,-181.377 69.6265,-179.068"/>
<polygon fill="none" stroke="#404040" points="69.7222,-178.813 68.08,-171.791 73.9299,-167.574 75.5721,-174.596 69.7222,-178.813"/>
<text text-anchor="middle" x="116" y="-189" font-family="Helvetica,sans-Serif" font-size="10.00"> #TRANSPORT_LIST</text>
</g>
<!-- Node3 -->
<g id="node3" class="node"><title>Node3</title>
<polygon fill="white" stroke="#bfbfbf" points="163.5,-221 163.5,-278 209.5,-278 209.5,-221 163.5,-221"/>
<text text-anchor="middle" x="186.5" y="-266" font-family="Helvetica,sans-Serif" font-size="10.00">Logger</text>
<polyline fill="none" stroke="#bfbfbf" points="163.5,-259 209.5,-259 "/>
<text text-anchor="middle" x="186.5" y="-247" font-family="Helvetica,sans-Serif" font-size="10.00"> </text>
<polyline fill="none" stroke="#bfbfbf" points="163.5,-240 209.5,-240 "/>
<text text-anchor="middle" x="186.5" y="-228" font-family="Helvetica,sans-Serif" font-size="10.00"> </text>
</g>
<!-- Node3&#45;&gt;Node1 -->
<g id="edge2" class="edge"><title>Node3&#45;&gt;Node1</title>
<path fill="none" stroke="#404040" d="M176.88,-220.764C173.076,-209.903 168.632,-197.35 164.5,-186 163.649,-183.662 162.784,-181.295 161.908,-178.907"/>
<polygon fill="none" stroke="#404040" points="161.9,-178.885 156.072,-174.638 157.751,-167.625 163.579,-171.872 161.9,-178.885"/>
<text text-anchor="middle" x="193" y="-189" font-family="Helvetica,sans-Serif" font-size="10.00"> &#45;LOGGER</text>
</g>
</g>
</svg>
