<?xml version="1.0" encoding="UTF-8" standalone="no"?>
<!DOCTYPE svg PUBLIC "-//W3C//DTD SVG 1.1//EN"
 "http://www.w3.org/Graphics/SVG/1.1/DTD/svg11.dtd">
<!-- Generated by graphviz version 2.38.0 (20140413.2041)
 -->
<!-- Title: es.ull.esit.ConsoleMain Pages: 1 -->
<svg width="310pt" height="292pt"
 viewBox="0.00 0.00 309.50 292.00" xmlns="http://www.w3.org/2000/svg" xmlns:xlink="http://www.w3.org/1999/xlink">
<g id="graph0" class="graph" transform="scale(1 1) rotate(0) translate(4 288)">
<title>es.ull.esit.ConsoleMain</title>
<polygon fill="white" stroke="none" points="-4,4 -4,-288 305.5,-288 305.5,4 -4,4"/>
<!-- Node1 -->
<g id="node1" class="node"><title>Node1</title>
<polygon fill="#bfbfbf" stroke="black" points="112,-0.5 112,-167.5 261,-167.5 261,-0.5 112,-0.5"/>
<text text-anchor="middle" x="186.5" y="-155.5" font-family="Helvetica,sans-Serif" font-size="10.00">es.ull.esit.ConsoleMain</text>
<polyline fill="none" stroke="black" points="112,-148.5 261,-148.5 "/>
<text text-anchor="start" x="120" y="-136.5" font-family="Helvetica,sans-Serif" font-size="10.00">+ LINE_SEPARATOR</text>
<text text-anchor="start" x="120" y="-125.5" font-family="Helvetica,sans-Serif" font-size="10.00">+ N_TRANSPORTS</text>
<polyline fill="none" stroke="black" points="112,-118.5 261,-118.5 "/>
<text text-anchor="start" x="120" y="-106.5" font-family="Helvetica,sans-Serif" font-size="10.00">+ main()</text>
<text text-anchor="start" x="120" y="-95.5" font-family="Helvetica,sans-Serif" font-size="10.00">+ defaultMenu()</text>
<text text-anchor="start" x="120" y="-84.5" font-family="Helvetica,sans-Serif" font-size="10.00">&#45; automaticMode()</text>
<text text-anchor="start" x="120" y="-73.5" font-family="Helvetica,sans-Serif" font-size="10.00">&#45; manualMode()</text>
<text text-anchor="start" x="120" y="-62.5" font-family="Helvetica,sans-Serif" font-size="10.00">&#45; generateRandomTransports()</text>
<text text-anchor="start" x="120" y="-51.5" font-family="Helvetica,sans-Serif" font-size="10.00">&#45; createShip()</text>
<text text-anchor="start" x="120" y="-40.5" font-family="Helvetica,sans-Serif" font-size="10.00">&#45; killShip()</text>
<text text-anchor="start" x="120" y="-29.5" font-family="Helvetica,sans-Serif" font-size="10.00">&#45; showShipStatus()</text>
<text text-anchor="start" x="120" y="-18.5" font-family="Helvetica,sans-Serif" font-size="10.00">&#45; updateShip()</text>
<text text-anchor="start" x="120" y="-7.5" font-family="Helvetica,sans-Serif" font-size="10.00">&#45; getSelectedShip()</text>
</g>
<!-- Node2 -->
<g id="node2" class="node"><title>Node2</title>
<polygon fill="white" stroke="#bfbfbf" points="0,-215.5 0,-283.5 133,-283.5 133,-215.5 0,-215.5"/>
<text text-anchor="start" x="8" y="-271.5" font-family="Helvetica,sans-Serif" font-size="10.00">List&lt; es.ull.esit.transports.</text>
<text text-anchor="middle" x="66.5" y="-260.5" font-family="Helvetica,sans-Serif" font-size="10.00">Transport &gt;</text>
<polyline fill="none" stroke="#bfbfbf" points="0,-253.5 133,-253.5 "/>
<text text-anchor="middle" x="66.5" y="-241.5" font-family="Helvetica,sans-Serif" font-size="10.00"> </text>
<polyline fill="none" stroke="#bfbfbf" points="0,-234.5 133,-234.5 "/>
<text text-anchor="middle" x="66.5" y="-222.5" font-family="Helvetica,sans-Serif" font-size="10.00"> </text>
</g>
<!-- Node2&#45;&gt;Node1 -->
<g id="edge1" class="edge"><title>Node2&#45;&gt;Node1</title>
<path fill="none" stroke="#404040" d="M73.2947,-215.43C76.1701,-205.536 80.1333,-194.948 85.5,-186 90.875,-177.038 97.2173,-168.29 104.063,-159.928"/>
<polygon fill="none" stroke="#404040" points="104.186,-159.784 105.042,-152.624 111.98,-150.661 111.124,-157.821 104.186,-159.784"/>
<text text-anchor="middle" x="134" y="-189" font-family="Helvetica,sans-Serif" font-size="10.00"> #TRANSPORT_LIST</text>
</g>
<!-- Node3 -->
<g id="node3" class="node"><title>Node3</title>
<polygon fill="white" stroke="#bfbfbf" points="160,-221 160,-278 213,-278 213,-221 160,-221"/>
<text text-anchor="middle" x="186.5" y="-266" font-family="Helvetica,sans-Serif" font-size="10.00">Scanner</text>
<polyline fill="none" stroke="#bfbfbf" points="160,-259 213,-259 "/>
<text text-anchor="middle" x="186.5" y="-247" font-family="Helvetica,sans-Serif" font-size="10.00"> </text>
<polyline fill="none" stroke="#bfbfbf" points="160,-240 213,-240 "/>
<text text-anchor="middle" x="186.5" y="-228" font-family="Helvetica,sans-Serif" font-size="10.00"> </text>
</g>
<!-- Node3&#45;&gt;Node1 -->
<g id="edge2" class="edge"><title>Node3&#45;&gt;Node1</title>
<path fill="none" stroke="#404040" d="M186.5,-220.764C186.5,-209.046 186.5,-194.648 186.5,-179.656"/>
<polygon fill="none" stroke="#404040" points="186.5,-179.545 182.5,-173.545 186.5,-167.545 190.5,-173.545 186.5,-179.545"/>
<text text-anchor="middle" x="216.5" y="-189" font-family="Helvetica,sans-Serif" font-size="10.00"> +SCANNER</text>
</g>
<!-- Node4 -->
<g id="node4" class="node"><title>Node4</title>
<polygon fill="white" stroke="#bfbfbf" points="246.5,-221 246.5,-278 292.5,-278 292.5,-221 246.5,-221"/>
<text text-anchor="middle" x="269.5" y="-266" font-family="Helvetica,sans-Serif" font-size="10.00">Logger</text>
<polyline fill="none" stroke="#bfbfbf" points="246.5,-259 292.5,-259 "/>
<text text-anchor="middle" x="269.5" y="-247" font-family="Helvetica,sans-Serif" font-size="10.00"> </text>
<polyline fill="none" stroke="#bfbfbf" points="246.5,-240 292.5,-240 "/>
<text text-anchor="middle" x="269.5" y="-228" font-family="Helvetica,sans-Serif" font-size="10.00"> </text>
</g>
<!-- Node4&#45;&gt;Node1 -->
<g id="edge3" class="edge"><title>Node4&#45;&gt;Node1</title>
<path fill="none" stroke="#404040" d="M261.155,-220.941C257.458,-209.876 252.753,-197.131 247.5,-186 246.346,-183.554 245.148,-181.092 243.915,-178.621"/>
<polygon fill="none" stroke="#404040" points="243.813,-178.423 237.505,-174.929 238.304,-167.762 244.612,-171.256 243.813,-178.423"/>
<text text-anchor="middle" x="277" y="-189" font-family="Helvetica,sans-Serif" font-size="10.00"> &#45;LOGGER</text>
</g>
</g>
</svg>
