<?xml version="1.0" encoding="UTF-8" standalone="no"?>
<!DOCTYPE svg PUBLIC "-//W3C//DTD SVG 1.1//EN"
 "http://www.w3.org/Graphics/SVG/1.1/DTD/svg11.dtd">
<!-- Generated by graphviz version 2.38.0 (20140413.2041)
 -->
<!-- Title: es.ull.esit.ConsoleMain Pages: 1 -->
<svg width="228pt" height="193pt"
 viewBox="0.00 0.00 228.00 193.00" xmlns="http://www.w3.org/2000/svg" xmlns:xlink="http://www.w3.org/1999/xlink">
<g id="graph0" class="graph" transform="scale(1 1) rotate(0) translate(4 189)">
<title>es.ull.esit.ConsoleMain</title>
<polygon fill="white" stroke="none" points="-4,4 -4,-189 224,-189 224,4 -4,4"/>
<!-- Node1 -->
<g id="node1" class="node"><title>Node1</title>
<polygon fill="#bfbfbf" stroke="black" points="7.5,-0.5 7.5,-68.5 156.5,-68.5 156.5,-0.5 7.5,-0.5"/>
<text text-anchor="middle" x="82" y="-56.5" font-family="Helvetica,sans-Serif" font-size="10.00">es.ull.esit.ConsoleMain</text>
<polyline fill="none" stroke="black" points="7.5,-49.5 156.5,-49.5 "/>
<text text-anchor="start" x="15.5" y="-37.5" font-family="Helvetica,sans-Serif" font-size="10.00">+ N_TRANSPORTS</text>
<polyline fill="none" stroke="black" points="7.5,-30.5 156.5,-30.5 "/>
<text text-anchor="start" x="15.5" y="-18.5" font-family="Helvetica,sans-Serif" font-size="10.00">+ main()</text>
<text text-anchor="start" x="15.5" y="-7.5" font-family="Helvetica,sans-Serif" font-size="10.00">&#45; generateRandomTransports()</text>
</g>
<!-- Node2 -->
<g id="node2" class="node"><title>Node2</title>
<polygon fill="white" stroke="#bfbfbf" points="0,-122 0,-179 46,-179 46,-122 0,-122"/>
<text text-anchor="middle" x="23" y="-167" font-family="Helvetica,sans-Serif" font-size="10.00">Logger</text>
<polyline fill="none" stroke="#bfbfbf" points="0,-160 46,-160 "/>
<text text-anchor="middle" x="23" y="-148" font-family="Helvetica,sans-Serif" font-size="10.00"> </text>
<polyline fill="none" stroke="#bfbfbf" points="0,-141 46,-141 "/>
<text text-anchor="middle" x="23" y="-129" font-family="Helvetica,sans-Serif" font-size="10.00"> </text>
</g>
<!-- Node2&#45;&gt;Node1 -->
<g id="edge1" class="edge"><title>Node2&#45;&gt;Node1</title>
<path fill="none" stroke="#404040" d="M37.2823,-121.904C43.9133,-109.091 51.9571,-93.549 59.3842,-79.1983"/>
<polygon fill="none" stroke="#404040" points="59.3943,-79.1787 58.5997,-72.0115 64.91,-68.5214 65.7046,-75.6886 59.3943,-79.1787"/>
<text text-anchor="middle" x="79.5" y="-90" font-family="Helvetica,sans-Serif" font-size="10.00"> &#45;LOGGER</text>
</g>
<!-- Node3 -->
<g id="node3" class="node"><title>Node3</title>
<polygon fill="white" stroke="#bfbfbf" points="64,-116.5 64,-184.5 220,-184.5 220,-116.5 64,-116.5"/>
<text text-anchor="start" x="72" y="-172.5" font-family="Helvetica,sans-Serif" font-size="10.00">ArrayList&lt; es.ull.esit.transports.</text>
<text text-anchor="middle" x="142" y="-161.5" font-family="Helvetica,sans-Serif" font-size="10.00">Transport &gt;</text>
<polyline fill="none" stroke="#bfbfbf" points="64,-154.5 220,-154.5 "/>
<text text-anchor="middle" x="142" y="-142.5" font-family="Helvetica,sans-Serif" font-size="10.00"> </text>
<polyline fill="none" stroke="#bfbfbf" points="64,-135.5 220,-135.5 "/>
<text text-anchor="middle" x="142" y="-123.5" font-family="Helvetica,sans-Serif" font-size="10.00"> </text>
</g>
<!-- Node3&#45;&gt;Node1 -->
<g id="edge2" class="edge"><title>Node3&#45;&gt;Node1</title>
<path fill="none" stroke="#404040" d="M124.484,-116.22C118.446,-104.748 111.587,-91.7152 105.168,-79.5199"/>
<polygon fill="none" stroke="#404040" points="105.023,-79.2433 98.6887,-75.7968 99.4338,-68.6243 105.768,-72.0708 105.023,-79.2433"/>
<text text-anchor="middle" x="139.5" y="-90" font-family="Helvetica,sans-Serif" font-size="10.00"> +transports</text>
</g>
</g>
</svg>
