<?xml version="1.0" encoding="UTF-8" standalone="no"?>
<!DOCTYPE svg PUBLIC "-//W3C//DTD SVG 1.1//EN"
 "http://www.w3.org/Graphics/SVG/1.1/DTD/svg11.dtd">
<!-- Generated by graphviz version 2.38.0 (20140413.2041)
 -->
<!-- Title: es.ull.esit.transports.CruiseShip Pages: 1 -->
<svg width="191pt" height="376pt"
 viewBox="0.00 0.00 190.50 376.00" xmlns="http://www.w3.org/2000/svg" xmlns:xlink="http://www.w3.org/1999/xlink">
<g id="graph0" class="graph" transform="scale(1 1) rotate(0) translate(4 372)">
<title>es.ull.esit.transports.CruiseShip</title>
<polygon fill="white" stroke="none" points="-4,4 -4,-372 186.5,-372 186.5,4 -4,4"/>
<!-- Node1 -->
<g id="node1" class="node"><title>Node1</title>
<polygon fill="#bfbfbf" stroke="black" points="0,-0.5 0,-57.5 156,-57.5 156,-0.5 0,-0.5"/>
<text text-anchor="middle" x="78" y="-45.5" font-family="Helvetica,sans-Serif" font-size="10.00">es.ull.esit.transports.CruiseShip</text>
<polyline fill="none" stroke="black" points="0,-38.5 156,-38.5 "/>
<text text-anchor="middle" x="78" y="-26.5" font-family="Helvetica,sans-Serif" font-size="10.00"> </text>
<polyline fill="none" stroke="black" points="0,-19.5 156,-19.5 "/>
<text text-anchor="start" x="8" y="-7.5" font-family="Helvetica,sans-Serif" font-size="10.00">+ CruiseShip()</text>
</g>
<!-- Node2 -->
<g id="node2" class="node"><title>Node2</title>
<g id="a_node2"><a xlink:href="classes_1_1ull_1_1esit_1_1transports_1_1_transport.html" target="_top" xlink:title="Abstract class to represent a transport. ">
<polygon fill="white" stroke="black" points="3.5,-95.5 3.5,-240.5 152.5,-240.5 152.5,-95.5 3.5,-95.5"/>
<text text-anchor="middle" x="78" y="-228.5" font-family="Helvetica,sans-Serif" font-size="10.00">es.ull.esit.transports.Transport</text>
<polyline fill="none" stroke="black" points="3.5,-221.5 152.5,-221.5 "/>
<text text-anchor="start" x="11.5" y="-209.5" font-family="Helvetica,sans-Serif" font-size="10.00"># type</text>
<text text-anchor="start" x="11.5" y="-198.5" font-family="Helvetica,sans-Serif" font-size="10.00"># currentPathIndex</text>
<polyline fill="none" stroke="black" points="3.5,-191.5 152.5,-191.5 "/>
<text text-anchor="start" x="11.5" y="-179.5" font-family="Helvetica,sans-Serif" font-size="10.00">+ getType()</text>
<text text-anchor="start" x="11.5" y="-168.5" font-family="Helvetica,sans-Serif" font-size="10.00">+ getLatitude()</text>
<text text-anchor="start" x="11.5" y="-157.5" font-family="Helvetica,sans-Serif" font-size="10.00">+ getLongitude()</text>
<text text-anchor="start" x="11.5" y="-146.5" font-family="Helvetica,sans-Serif" font-size="10.00">+ move()</text>
<text text-anchor="start" x="11.5" y="-135.5" font-family="Helvetica,sans-Serif" font-size="10.00">+ setStartLocation()</text>
<text text-anchor="start" x="11.5" y="-124.5" font-family="Helvetica,sans-Serif" font-size="10.00">+ setEndLocation()</text>
<text text-anchor="start" x="11.5" y="-113.5" font-family="Helvetica,sans-Serif" font-size="10.00">+ setCurrentLocation()</text>
<text text-anchor="start" x="11.5" y="-102.5" font-family="Helvetica,sans-Serif" font-size="10.00">+ setPath()</text>
</a>
</g>
</g>
<!-- Node2&#45;&gt;Node1 -->
<g id="edge1" class="edge"><title>Node2&#45;&gt;Node1</title>
<path fill="none" stroke="midnightblue" d="M78,-85.0423C78,-75.3063 78,-65.9479 78,-57.7962"/>
<polygon fill="none" stroke="midnightblue" points="74.5001,-85.2901 78,-95.2901 81.5001,-85.2901 74.5001,-85.2901"/>
</g>
<!-- Node3 -->
<g id="node3" class="node"><title>Node3</title>
<polygon fill="white" stroke="#bfbfbf" points="3,-310.5 3,-367.5 55,-367.5 55,-310.5 3,-310.5"/>
<text text-anchor="middle" x="29" y="-355.5" font-family="Helvetica,sans-Serif" font-size="10.00">Point2D</text>
<polyline fill="none" stroke="#bfbfbf" points="3,-348.5 55,-348.5 "/>
<text text-anchor="middle" x="29" y="-336.5" font-family="Helvetica,sans-Serif" font-size="10.00"> </text>
<polyline fill="none" stroke="#bfbfbf" points="3,-329.5 55,-329.5 "/>
<text text-anchor="middle" x="29" y="-317.5" font-family="Helvetica,sans-Serif" font-size="10.00"> </text>
</g>
<!-- Node3&#45;&gt;Node2 -->
<g id="edge2" class="edge"><title>Node3&#45;&gt;Node2</title>
<path fill="none" stroke="#404040" d="M26.1682,-310.157C25.3981,-294.831 25.7364,-275.607 30,-259 30.5862,-256.717 31.2413,-254.427 31.9564,-252.139"/>
<polygon fill="none" stroke="#404040" points="31.9885,-252.048 30.2196,-245.057 35.9924,-240.736 37.7612,-247.727 31.9885,-252.048"/>
<text text-anchor="middle" x="68" y="-284" font-family="Helvetica,sans-Serif" font-size="10.00"> #currentLocation</text>
<text text-anchor="middle" x="68" y="-273" font-family="Helvetica,sans-Serif" font-size="10.00">#endLocation</text>
<text text-anchor="middle" x="68" y="-262" font-family="Helvetica,sans-Serif" font-size="10.00">#startLocation</text>
</g>
<!-- Node4 -->
<g id="node4" class="node"><title>Node4</title>
<polygon fill="white" stroke="#bfbfbf" points="73.5,-310.5 73.5,-367.5 182.5,-367.5 182.5,-310.5 73.5,-310.5"/>
<text text-anchor="middle" x="128" y="-355.5" font-family="Helvetica,sans-Serif" font-size="10.00">ArrayList&lt; Point2D &gt;</text>
<polyline fill="none" stroke="#bfbfbf" points="73.5,-348.5 182.5,-348.5 "/>
<text text-anchor="middle" x="128" y="-336.5" font-family="Helvetica,sans-Serif" font-size="10.00"> </text>
<polyline fill="none" stroke="#bfbfbf" points="73.5,-329.5 182.5,-329.5 "/>
<text text-anchor="middle" x="128" y="-317.5" font-family="Helvetica,sans-Serif" font-size="10.00"> </text>
</g>
<!-- Node4&#45;&gt;Node2 -->
<g id="edge3" class="edge"><title>Node4&#45;&gt;Node2</title>
<path fill="none" stroke="#404040" d="M120.465,-310.156C116.308,-294.998 110.991,-275.934 106,-259 105.341,-256.763 104.668,-254.497 103.986,-252.211"/>
<polygon fill="none" stroke="#404040" points="103.969,-252.154 98.4084,-247.563 100.508,-240.664 106.068,-245.255 103.969,-252.154"/>
<text text-anchor="middle" x="130" y="-273" font-family="Helvetica,sans-Serif" font-size="10.00"> #path</text>
</g>
</g>
</svg>
