<?xml version="1.0" encoding="UTF-8" standalone="no"?>
<!DOCTYPE svg PUBLIC "-//W3C//DTD SVG 1.1//EN"
 "http://www.w3.org/Graphics/SVG/1.1/DTD/svg11.dtd">
<!-- Generated by graphviz version 2.38.0 (20140413.2041)
 -->
<!-- Title: es.ull.esit.transports.Transport Pages: 1 -->
<svg width="466pt" height="226pt"
 viewBox="0.00 0.00 466.00 226.00" xmlns="http://www.w3.org/2000/svg" xmlns:xlink="http://www.w3.org/1999/xlink">
<g id="graph0" class="graph" transform="scale(1 1) rotate(0) translate(4 222)">
<title>es.ull.esit.transports.Transport</title>
<polygon fill="white" stroke="none" points="-4,4 -4,-222 462,-222 462,4 -4,4"/>
<!-- Node1 -->
<g id="node1" class="node"><title>Node1</title>
<polygon fill="#bfbfbf" stroke="black" points="172.5,-105.5 172.5,-217.5 321.5,-217.5 321.5,-105.5 172.5,-105.5"/>
<text text-anchor="middle" x="247" y="-205.5" font-family="Helvetica,sans-Serif" font-size="10.00">es.ull.esit.transports.Transport</text>
<polyline fill="none" stroke="black" points="172.5,-198.5 321.5,-198.5 "/>
<text text-anchor="start" x="180.5" y="-186.5" font-family="Helvetica,sans-Serif" font-size="10.00"># type</text>
<text text-anchor="start" x="180.5" y="-175.5" font-family="Helvetica,sans-Serif" font-size="10.00"># latitude</text>
<text text-anchor="start" x="180.5" y="-164.5" font-family="Helvetica,sans-Serif" font-size="10.00"># longitude</text>
<polyline fill="none" stroke="black" points="172.5,-157.5 321.5,-157.5 "/>
<text text-anchor="start" x="180.5" y="-145.5" font-family="Helvetica,sans-Serif" font-size="10.00">+ getType()</text>
<text text-anchor="start" x="180.5" y="-134.5" font-family="Helvetica,sans-Serif" font-size="10.00">+ getLatitude()</text>
<text text-anchor="start" x="180.5" y="-123.5" font-family="Helvetica,sans-Serif" font-size="10.00">+ getLongitude()</text>
<text text-anchor="start" x="180.5" y="-112.5" font-family="Helvetica,sans-Serif" font-size="10.00">+ setCoordinates()</text>
</g>
<!-- Node2 -->
<g id="node2" class="node"><title>Node2</title>
<g id="a_node2"><a xlink:href="classes_1_1ull_1_1esit_1_1transports_1_1_cruise_ship.html" target="_top" xlink:title="{es.ull.esit.transports.CruiseShip\n||+ CruiseShip()\l}">
<polygon fill="white" stroke="black" points="0,-6 0,-63 156,-63 156,-6 0,-6"/>
<text text-anchor="middle" x="78" y="-51" font-family="Helvetica,sans-Serif" font-size="10.00">es.ull.esit.transports.CruiseShip</text>
<polyline fill="none" stroke="black" points="0,-44 156,-44 "/>
<text text-anchor="middle" x="78" y="-32" font-family="Helvetica,sans-Serif" font-size="10.00"> </text>
<polyline fill="none" stroke="black" points="0,-25 156,-25 "/>
<text text-anchor="start" x="8" y="-13" font-family="Helvetica,sans-Serif" font-size="10.00">+ CruiseShip()</text>
</a>
</g>
</g>
<!-- Node1&#45;&gt;Node2 -->
<g id="edge1" class="edge"><title>Node1&#45;&gt;Node2</title>
<path fill="none" stroke="midnightblue" d="M163.995,-99.1057C146.871,-86.4403 129.666,-73.7143 115.192,-63.0091"/>
<polygon fill="none" stroke="midnightblue" points="162.261,-102.177 172.382,-105.309 166.424,-96.5488 162.261,-102.177"/>
</g>
<!-- Node3 -->
<g id="node3" class="node"><title>Node3</title>
<g id="a_node3"><a xlink:href="classes_1_1ull_1_1esit_1_1transports_1_1_freighter.html" target="_top" xlink:title="{es.ull.esit.transports.Freighter\n||+ Freighter()\l}">
<polygon fill="white" stroke="black" points="174,-6 174,-63 320,-63 320,-6 174,-6"/>
<text text-anchor="middle" x="247" y="-51" font-family="Helvetica,sans-Serif" font-size="10.00">es.ull.esit.transports.Freighter</text>
<polyline fill="none" stroke="black" points="174,-44 320,-44 "/>
<text text-anchor="middle" x="247" y="-32" font-family="Helvetica,sans-Serif" font-size="10.00"> </text>
<polyline fill="none" stroke="black" points="174,-25 320,-25 "/>
<text text-anchor="start" x="182" y="-13" font-family="Helvetica,sans-Serif" font-size="10.00">+ Freighter()</text>
</a>
</g>
</g>
<!-- Node1&#45;&gt;Node3 -->
<g id="edge2" class="edge"><title>Node1&#45;&gt;Node3</title>
<path fill="none" stroke="midnightblue" d="M247,-95.3064C247,-83.9153 247,-72.6438 247,-63.0091"/>
<polygon fill="none" stroke="midnightblue" points="243.5,-95.3093 247,-105.309 250.5,-95.3094 243.5,-95.3093"/>
</g>
<!-- Node4 -->
<g id="node4" class="node"><title>Node4</title>
<g id="a_node4"><a xlink:href="classes_1_1ull_1_1esit_1_1transports_1_1_oil_tanker.html" target="_top" xlink:title="{es.ull.esit.transports.Oil\lTanker\n||+ OilTanker()\l}">
<polygon fill="white" stroke="black" points="338,-0.5 338,-68.5 458,-68.5 458,-0.5 338,-0.5"/>
<text text-anchor="start" x="346" y="-56.5" font-family="Helvetica,sans-Serif" font-size="10.00">es.ull.esit.transports.Oil</text>
<text text-anchor="middle" x="398" y="-45.5" font-family="Helvetica,sans-Serif" font-size="10.00">Tanker</text>
<polyline fill="none" stroke="black" points="338,-38.5 458,-38.5 "/>
<text text-anchor="middle" x="398" y="-26.5" font-family="Helvetica,sans-Serif" font-size="10.00"> </text>
<polyline fill="none" stroke="black" points="338,-19.5 458,-19.5 "/>
<text text-anchor="start" x="346" y="-7.5" font-family="Helvetica,sans-Serif" font-size="10.00">+ OilTanker()</text>
</a>
</g>
</g>
<!-- Node1&#45;&gt;Node4 -->
<g id="edge3" class="edge"><title>Node1&#45;&gt;Node4</title>
<path fill="none" stroke="midnightblue" d="M321.522,-98.8096C334.16,-88.3477 346.835,-77.8554 358.129,-68.5058"/>
<polygon fill="none" stroke="midnightblue" points="319.142,-96.2365 313.67,-105.309 323.605,-101.629 319.142,-96.2365"/>
</g>
</g>
</svg>
