<?xml version="1.0" encoding="UTF-8" standalone="no"?>
<!DOCTYPE svg PUBLIC "-//W3C//DTD SVG 1.1//EN"
 "http://www.w3.org/Graphics/SVG/1.1/DTD/svg11.dtd">
<!-- Generated by graphviz version 2.38.0 (20140413.2041)
 -->
<!-- Title: es.ull.esit.builder.TransportBuilder Pages: 1 -->
<svg width="188pt" height="452pt"
 viewBox="0.00 0.00 187.50 452.00" xmlns="http://www.w3.org/2000/svg" xmlns:xlink="http://www.w3.org/1999/xlink">
<g id="graph0" class="graph" transform="scale(1 1) rotate(0) translate(4 448)">
<title>es.ull.esit.builder.TransportBuilder</title>
<polygon fill="white" stroke="none" points="-4,4 -4,-448 183.5,-448 183.5,4 -4,4"/>
<!-- Node1 -->
<g id="node1" class="node"><title>Node1</title>
<polygon fill="#bfbfbf" stroke="black" points="8,-0.5 8,-79.5 142,-79.5 142,-0.5 8,-0.5"/>
<text text-anchor="start" x="16" y="-67.5" font-family="Helvetica,sans-Serif" font-size="10.00">es.ull.esit.builder.Transport</text>
<text text-anchor="middle" x="75" y="-56.5" font-family="Helvetica,sans-Serif" font-size="10.00">Builder</text>
<polyline fill="none" stroke="black" points="8,-49.5 142,-49.5 "/>
<text text-anchor="middle" x="75" y="-37.5" font-family="Helvetica,sans-Serif" font-size="10.00"> </text>
<polyline fill="none" stroke="black" points="8,-30.5 142,-30.5 "/>
<text text-anchor="start" x="16" y="-18.5" font-family="Helvetica,sans-Serif" font-size="10.00">+ TransportBuilder()</text>
<text text-anchor="start" x="16" y="-7.5" font-family="Helvetica,sans-Serif" font-size="10.00">+ getBuild()</text>
</g>
<!-- Node2 -->
<g id="node2" class="node"><title>Node2</title>
<g id="a_node2"><a xlink:href="classes_1_1ull_1_1esit_1_1transports_1_1_transport.html" target="_top" xlink:title="Abstract class to represent a transport. ">
<polygon fill="white" stroke="black" points="0.5,-127.5 0.5,-316.5 149.5,-316.5 149.5,-127.5 0.5,-127.5"/>
<text text-anchor="middle" x="75" y="-304.5" font-family="Helvetica,sans-Serif" font-size="10.00">es.ull.esit.transports.Transport</text>
<polyline fill="none" stroke="black" points="0.5,-297.5 149.5,-297.5 "/>
<text text-anchor="start" x="8.5" y="-285.5" font-family="Helvetica,sans-Serif" font-size="10.00">+ N_INCREMENT</text>
<text text-anchor="start" x="8.5" y="-274.5" font-family="Helvetica,sans-Serif" font-size="10.00"># type</text>
<text text-anchor="start" x="8.5" y="-263.5" font-family="Helvetica,sans-Serif" font-size="10.00"># currentPathIndex</text>
<polyline fill="none" stroke="black" points="0.5,-256.5 149.5,-256.5 "/>
<text text-anchor="start" x="8.5" y="-244.5" font-family="Helvetica,sans-Serif" font-size="10.00">+ getType()</text>
<text text-anchor="start" x="8.5" y="-233.5" font-family="Helvetica,sans-Serif" font-size="10.00">+ getLatitude()</text>
<text text-anchor="start" x="8.5" y="-222.5" font-family="Helvetica,sans-Serif" font-size="10.00">+ getLongitude()</text>
<text text-anchor="start" x="8.5" y="-211.5" font-family="Helvetica,sans-Serif" font-size="10.00">+ move()</text>
<text text-anchor="start" x="8.5" y="-200.5" font-family="Helvetica,sans-Serif" font-size="10.00">+ toString()</text>
<text text-anchor="start" x="8.5" y="-189.5" font-family="Helvetica,sans-Serif" font-size="10.00">+ pathSize()</text>
<text text-anchor="start" x="8.5" y="-178.5" font-family="Helvetica,sans-Serif" font-size="10.00">+ getCurrentPathIndex()</text>
<text text-anchor="start" x="8.5" y="-167.5" font-family="Helvetica,sans-Serif" font-size="10.00">+ setStartLocation()</text>
<text text-anchor="start" x="8.5" y="-156.5" font-family="Helvetica,sans-Serif" font-size="10.00">+ setEndLocation()</text>
<text text-anchor="start" x="8.5" y="-145.5" font-family="Helvetica,sans-Serif" font-size="10.00">+ setCurrentLocation()</text>
<text text-anchor="start" x="8.5" y="-134.5" font-family="Helvetica,sans-Serif" font-size="10.00">+ setPath()</text>
</a>
</g>
</g>
<!-- Node2&#45;&gt;Node1 -->
<g id="edge1" class="edge"><title>Node2&#45;&gt;Node1</title>
<path fill="none" stroke="#404040" d="M75,-127.31C75,-115.145 75,-103.07 75,-91.9762"/>
<polygon fill="none" stroke="#404040" points="75.0001,-91.9153 71,-85.9153 75,-79.9153 79,-85.9153 75.0001,-91.9153"/>
<text text-anchor="middle" x="97.5" y="-101" font-family="Helvetica,sans-Serif" font-size="10.00"> &#45;transport</text>
</g>
<!-- Node3 -->
<g id="node3" class="node"><title>Node3</title>
<polygon fill="white" stroke="#bfbfbf" points="0,-386.5 0,-443.5 52,-443.5 52,-386.5 0,-386.5"/>
<text text-anchor="middle" x="26" y="-431.5" font-family="Helvetica,sans-Serif" font-size="10.00">Point2D</text>
<polyline fill="none" stroke="#bfbfbf" points="0,-424.5 52,-424.5 "/>
<text text-anchor="middle" x="26" y="-412.5" font-family="Helvetica,sans-Serif" font-size="10.00"> </text>
<polyline fill="none" stroke="#bfbfbf" points="0,-405.5 52,-405.5 "/>
<text text-anchor="middle" x="26" y="-393.5" font-family="Helvetica,sans-Serif" font-size="10.00"> </text>
</g>
<!-- Node3&#45;&gt;Node2 -->
<g id="edge2" class="edge"><title>Node3&#45;&gt;Node2</title>
<path fill="none" stroke="#404040" d="M23.726,-386.288C23.1247,-371.001 23.4464,-351.773 27,-335 27.4648,-332.806 27.9735,-330.602 28.5215,-328.391"/>
<polygon fill="none" stroke="#404040" points="28.5999,-328.108 26.3465,-321.258 31.8029,-316.543 34.0563,-323.393 28.5999,-328.108"/>
<text text-anchor="middle" x="65" y="-360" font-family="Helvetica,sans-Serif" font-size="10.00"> #currentLocation</text>
<text text-anchor="middle" x="65" y="-349" font-family="Helvetica,sans-Serif" font-size="10.00">#endLocation</text>
<text text-anchor="middle" x="65" y="-338" font-family="Helvetica,sans-Serif" font-size="10.00">#startLocation</text>
</g>
<!-- Node4 -->
<g id="node4" class="node"><title>Node4</title>
<polygon fill="white" stroke="#bfbfbf" points="70.5,-386.5 70.5,-443.5 179.5,-443.5 179.5,-386.5 70.5,-386.5"/>
<text text-anchor="middle" x="125" y="-431.5" font-family="Helvetica,sans-Serif" font-size="10.00">ArrayList&lt; Point2D &gt;</text>
<polyline fill="none" stroke="#bfbfbf" points="70.5,-424.5 179.5,-424.5 "/>
<text text-anchor="middle" x="125" y="-412.5" font-family="Helvetica,sans-Serif" font-size="10.00"> </text>
<polyline fill="none" stroke="#bfbfbf" points="70.5,-405.5 179.5,-405.5 "/>
<text text-anchor="middle" x="125" y="-393.5" font-family="Helvetica,sans-Serif" font-size="10.00"> </text>
</g>
<!-- Node4&#45;&gt;Node2 -->
<g id="edge3" class="edge"><title>Node4&#45;&gt;Node2</title>
<path fill="none" stroke="#404040" d="M117.73,-386.227C113.639,-370.601 108.244,-349.99 102.669,-328.696"/>
<polygon fill="none" stroke="#404040" points="102.6,-328.431 97.2108,-323.64 99.5609,-316.822 104.95,-321.614 102.6,-328.431"/>
<text text-anchor="middle" x="127" y="-349" font-family="Helvetica,sans-Serif" font-size="10.00"> #path</text>
</g>
</g>
</svg>
