<?xml version="1.0" encoding="UTF-8" standalone="no"?>
<!DOCTYPE svg PUBLIC "-//W3C//DTD SVG 1.1//EN"
 "http://www.w3.org/Graphics/SVG/1.1/DTD/svg11.dtd">
<!-- Generated by graphviz version 2.38.0 (20140413.2041)
 -->
<!-- Title: es.ull.esit.transports.Transport Pages: 1 -->
<svg width="188pt" height="303pt"
 viewBox="0.00 0.00 187.50 303.00" xmlns="http://www.w3.org/2000/svg" xmlns:xlink="http://www.w3.org/1999/xlink">
<g id="graph0" class="graph" transform="scale(1 1) rotate(0) translate(4 299)">
<title>es.ull.esit.transports.Transport</title>
<polygon fill="white" stroke="none" points="-4,4 -4,-299 183.5,-299 183.5,4 -4,4"/>
<!-- Node1 -->
<g id="node1" class="node"><title>Node1</title>
<polygon fill="#bfbfbf" stroke="black" points="0.5,-0.5 0.5,-167.5 149.5,-167.5 149.5,-0.5 0.5,-0.5"/>
<text text-anchor="middle" x="75" y="-155.5" font-family="Helvetica,sans-Serif" font-size="10.00">es.ull.esit.transports.Transport</text>
<polyline fill="none" stroke="black" points="0.5,-148.5 149.5,-148.5 "/>
<text text-anchor="start" x="8.5" y="-136.5" font-family="Helvetica,sans-Serif" font-size="10.00"># type</text>
<text text-anchor="start" x="8.5" y="-125.5" font-family="Helvetica,sans-Serif" font-size="10.00"># currentPathIndex</text>
<text text-anchor="start" x="8.5" y="-114.5" font-family="Helvetica,sans-Serif" font-size="10.00">&#45; N_INCREMENT</text>
<polyline fill="none" stroke="black" points="0.5,-107.5 149.5,-107.5 "/>
<text text-anchor="start" x="8.5" y="-95.5" font-family="Helvetica,sans-Serif" font-size="10.00">+ getType()</text>
<text text-anchor="start" x="8.5" y="-84.5" font-family="Helvetica,sans-Serif" font-size="10.00">+ getLatitude()</text>
<text text-anchor="start" x="8.5" y="-73.5" font-family="Helvetica,sans-Serif" font-size="10.00">+ getLongitude()</text>
<text text-anchor="start" x="8.5" y="-62.5" font-family="Helvetica,sans-Serif" font-size="10.00">+ move()</text>
<text text-anchor="start" x="8.5" y="-51.5" font-family="Helvetica,sans-Serif" font-size="10.00">+ toString()</text>
<text text-anchor="start" x="8.5" y="-40.5" font-family="Helvetica,sans-Serif" font-size="10.00">+ setStartLocation()</text>
<text text-anchor="start" x="8.5" y="-29.5" font-family="Helvetica,sans-Serif" font-size="10.00">+ setEndLocation()</text>
<text text-anchor="start" x="8.5" y="-18.5" font-family="Helvetica,sans-Serif" font-size="10.00">+ setCurrentLocation()</text>
<text text-anchor="start" x="8.5" y="-7.5" font-family="Helvetica,sans-Serif" font-size="10.00">+ setPath()</text>
</g>
<!-- Node2 -->
<g id="node2" class="node"><title>Node2</title>
<polygon fill="white" stroke="#bfbfbf" points="0,-237.5 0,-294.5 52,-294.5 52,-237.5 0,-237.5"/>
<text text-anchor="middle" x="26" y="-282.5" font-family="Helvetica,sans-Serif" font-size="10.00">Point2D</text>
<polyline fill="none" stroke="#bfbfbf" points="0,-275.5 52,-275.5 "/>
<text text-anchor="middle" x="26" y="-263.5" font-family="Helvetica,sans-Serif" font-size="10.00"> </text>
<polyline fill="none" stroke="#bfbfbf" points="0,-256.5 52,-256.5 "/>
<text text-anchor="middle" x="26" y="-244.5" font-family="Helvetica,sans-Serif" font-size="10.00"> </text>
</g>
<!-- Node2&#45;&gt;Node1 -->
<g id="edge1" class="edge"><title>Node2&#45;&gt;Node1</title>
<path fill="none" stroke="#404040" d="M23.4712,-237.231C22.7927,-221.928 23.122,-202.701 27,-186 27.505,-183.825 28.0614,-181.642 28.6638,-179.456"/>
<polygon fill="none" stroke="#404040" points="28.736,-179.222 26.6924,-172.307 32.29,-167.761 34.3336,-174.676 28.736,-179.222"/>
<text text-anchor="middle" x="65" y="-211" font-family="Helvetica,sans-Serif" font-size="10.00"> #currentLocation</text>
<text text-anchor="middle" x="65" y="-200" font-family="Helvetica,sans-Serif" font-size="10.00">#endLocation</text>
<text text-anchor="middle" x="65" y="-189" font-family="Helvetica,sans-Serif" font-size="10.00">#startLocation</text>
</g>
<!-- Node3 -->
<g id="node3" class="node"><title>Node3</title>
<polygon fill="white" stroke="#bfbfbf" points="70.5,-237.5 70.5,-294.5 179.5,-294.5 179.5,-237.5 70.5,-237.5"/>
<text text-anchor="middle" x="125" y="-282.5" font-family="Helvetica,sans-Serif" font-size="10.00">ArrayList&lt; Point2D &gt;</text>
<polyline fill="none" stroke="#bfbfbf" points="70.5,-275.5 179.5,-275.5 "/>
<text text-anchor="middle" x="125" y="-263.5" font-family="Helvetica,sans-Serif" font-size="10.00"> </text>
<polyline fill="none" stroke="#bfbfbf" points="70.5,-256.5 179.5,-256.5 "/>
<text text-anchor="middle" x="125" y="-244.5" font-family="Helvetica,sans-Serif" font-size="10.00"> </text>
</g>
<!-- Node3&#45;&gt;Node1 -->
<g id="edge2" class="edge"><title>Node3&#45;&gt;Node1</title>
<path fill="none" stroke="#404040" d="M117.297,-237.269C112.906,-221.46 107.117,-200.623 101.238,-179.456"/>
<polygon fill="none" stroke="#404040" points="101.182,-179.255 95.7219,-174.544 97.9701,-167.692 103.43,-172.403 101.182,-179.255"/>
<text text-anchor="middle" x="126" y="-200" font-family="Helvetica,sans-Serif" font-size="10.00"> #path</text>
</g>
</g>
</svg>
