<?xml version="1.0" encoding="UTF-8" standalone="no"?>
<!DOCTYPE svg PUBLIC "-//W3C//DTD SVG 1.1//EN"
 "http://www.w3.org/Graphics/SVG/1.1/DTD/svg11.dtd">
<!-- Generated by graphviz version 2.38.0 (20140413.2041)
 -->
<!-- Title: es.ull.esit.GeoMap Pages: 1 -->
<svg width="479pt" height="226pt"
 viewBox="0.00 0.00 478.50 226.00" xmlns="http://www.w3.org/2000/svg" xmlns:xlink="http://www.w3.org/1999/xlink">
<g id="graph0" class="graph" transform="scale(1 1) rotate(0) translate(4 222)">
<title>es.ull.esit.GeoMap</title>
<polygon fill="white" stroke="none" points="-4,4 -4,-222 474.5,-222 474.5,4 -4,4"/>
<!-- Node1 -->
<g id="node1" class="node"><title>Node1</title>
<polygon fill="#bfbfbf" stroke="black" points="100,-0.5 100,-101.5 249,-101.5 249,-0.5 100,-0.5"/>
<text text-anchor="middle" x="174.5" y="-89.5" font-family="Helvetica,sans-Serif" font-size="10.00">es.ull.esit.GeoMap</text>
<polyline fill="none" stroke="black" points="100,-82.5 249,-82.5 "/>
<text text-anchor="start" x="108" y="-70.5" font-family="Helvetica,sans-Serif" font-size="10.00">+ N_TRANSPORTS</text>
<polyline fill="none" stroke="black" points="100,-63.5 249,-63.5 "/>
<text text-anchor="start" x="108" y="-51.5" font-family="Helvetica,sans-Serif" font-size="10.00">+ setup()</text>
<text text-anchor="start" x="108" y="-40.5" font-family="Helvetica,sans-Serif" font-size="10.00">+ draw()</text>
<text text-anchor="start" x="108" y="-29.5" font-family="Helvetica,sans-Serif" font-size="10.00">+ main()</text>
<text text-anchor="start" x="108" y="-18.5" font-family="Helvetica,sans-Serif" font-size="10.00">&#45; updateMarkers()</text>
<text text-anchor="start" x="108" y="-7.5" font-family="Helvetica,sans-Serif" font-size="10.00">&#45; generateRandomTransports()</text>
</g>
<!-- Node2 -->
<g id="node2" class="node"><title>Node2</title>
<polygon fill="white" stroke="#bfbfbf" points="0,-155 0,-212 51,-212 51,-155 0,-155"/>
<text text-anchor="middle" x="25.5" y="-200" font-family="Helvetica,sans-Serif" font-size="10.00">PApplet</text>
<polyline fill="none" stroke="#bfbfbf" points="0,-193 51,-193 "/>
<text text-anchor="middle" x="25.5" y="-181" font-family="Helvetica,sans-Serif" font-size="10.00"> </text>
<polyline fill="none" stroke="#bfbfbf" points="0,-174 51,-174 "/>
<text text-anchor="middle" x="25.5" y="-162" font-family="Helvetica,sans-Serif" font-size="10.00"> </text>
</g>
<!-- Node2&#45;&gt;Node1 -->
<g id="edge1" class="edge"><title>Node2&#45;&gt;Node1</title>
<path fill="none" stroke="midnightblue" d="M58.7403,-149.695C58.9942,-149.462 59.2474,-149.23 59.5,-149 76.7732,-133.249 96.0248,-116.655 113.76,-101.733"/>
<polygon fill="none" stroke="midnightblue" points="56.1887,-147.289 51.2892,-156.683 60.9775,-152.395 56.1887,-147.289"/>
</g>
<!-- Node3 -->
<g id="node3" class="node"><title>Node3</title>
<polygon fill="white" stroke="#bfbfbf" points="69,-155 69,-212 146,-212 146,-155 69,-155"/>
<text text-anchor="middle" x="107.5" y="-200" font-family="Helvetica,sans-Serif" font-size="10.00">UnfoldingMap</text>
<polyline fill="none" stroke="#bfbfbf" points="69,-193 146,-193 "/>
<text text-anchor="middle" x="107.5" y="-181" font-family="Helvetica,sans-Serif" font-size="10.00"> </text>
<polyline fill="none" stroke="#bfbfbf" points="69,-174 146,-174 "/>
<text text-anchor="middle" x="107.5" y="-162" font-family="Helvetica,sans-Serif" font-size="10.00"> </text>
</g>
<!-- Node3&#45;&gt;Node1 -->
<g id="edge2" class="edge"><title>Node3&#45;&gt;Node1</title>
<path fill="none" stroke="#404040" d="M121.709,-154.824C128.107,-142.362 135.93,-127.125 143.573,-112.238"/>
<polygon fill="none" stroke="#404040" points="143.603,-112.18 142.785,-105.016 149.084,-101.505 149.902,-108.67 143.603,-112.18"/>
<text text-anchor="middle" x="152" y="-123" font-family="Helvetica,sans-Serif" font-size="10.00"> &#45;map</text>
</g>
<!-- Node4 -->
<g id="node4" class="node"><title>Node4</title>
<polygon fill="white" stroke="#bfbfbf" points="164.5,-149.5 164.5,-217.5 320.5,-217.5 320.5,-149.5 164.5,-149.5"/>
<text text-anchor="start" x="172.5" y="-205.5" font-family="Helvetica,sans-Serif" font-size="10.00">ArrayList&lt; es.ull.esit.transports.</text>
<text text-anchor="middle" x="242.5" y="-194.5" font-family="Helvetica,sans-Serif" font-size="10.00">Transport &gt;</text>
<polyline fill="none" stroke="#bfbfbf" points="164.5,-187.5 320.5,-187.5 "/>
<text text-anchor="middle" x="242.5" y="-175.5" font-family="Helvetica,sans-Serif" font-size="10.00"> </text>
<polyline fill="none" stroke="#bfbfbf" points="164.5,-168.5 320.5,-168.5 "/>
<text text-anchor="middle" x="242.5" y="-156.5" font-family="Helvetica,sans-Serif" font-size="10.00"> </text>
</g>
<!-- Node4&#45;&gt;Node1 -->
<g id="edge3" class="edge"><title>Node4&#45;&gt;Node1</title>
<path fill="none" stroke="#404040" d="M225.165,-149.232C219.382,-138.134 212.745,-125.398 206.221,-112.876"/>
<polygon fill="none" stroke="#404040" points="206.086,-112.617 199.766,-109.145 200.541,-101.975 206.861,-105.448 206.086,-112.617"/>
<text text-anchor="middle" x="240.5" y="-123" font-family="Helvetica,sans-Serif" font-size="10.00"> &#45;transports</text>
</g>
<!-- Node5 -->
<g id="node5" class="node"><title>Node5</title>
<polygon fill="white" stroke="#bfbfbf" points="338.5,-155 338.5,-212 470.5,-212 470.5,-155 338.5,-155"/>
<text text-anchor="middle" x="404.5" y="-200" font-family="Helvetica,sans-Serif" font-size="10.00">MarkerManager&lt; Marker &gt;</text>
<polyline fill="none" stroke="#bfbfbf" points="338.5,-193 470.5,-193 "/>
<text text-anchor="middle" x="404.5" y="-181" font-family="Helvetica,sans-Serif" font-size="10.00"> </text>
<polyline fill="none" stroke="#bfbfbf" points="338.5,-174 470.5,-174 "/>
<text text-anchor="middle" x="404.5" y="-162" font-family="Helvetica,sans-Serif" font-size="10.00"> </text>
</g>
<!-- Node5&#45;&gt;Node1 -->
<g id="edge4" class="edge"><title>Node5&#45;&gt;Node1</title>
<path fill="none" stroke="#404040" d="M356.004,-154.984C328.178,-139.195 292.436,-118.916 260.04,-100.534"/>
<polygon fill="none" stroke="#404040" points="259.634,-100.305 252.442,-100.823 249.197,-94.3826 256.39,-93.8646 259.634,-100.305"/>
<text text-anchor="middle" x="347.5" y="-123" font-family="Helvetica,sans-Serif" font-size="10.00"> &#45;markerManager</text>
</g>
</g>
</svg>
