<?xml version="1.0" encoding="UTF-8" standalone="no"?>
<!DOCTYPE svg PUBLIC "-//W3C//DTD SVG 1.1//EN"
 "http://www.w3.org/Graphics/SVG/1.1/DTD/svg11.dtd">
<!-- Generated by graphviz version 2.38.0 (20140413.2041)
 -->
<!-- Title: es.ull.esit.transports.OilTanker Pages: 1 -->
<svg width="157pt" height="226pt"
 viewBox="0.00 0.00 157.00 226.00" xmlns="http://www.w3.org/2000/svg" xmlns:xlink="http://www.w3.org/1999/xlink">
<g id="graph0" class="graph" transform="scale(1 1) rotate(0) translate(4 222)">
<title>es.ull.esit.transports.OilTanker</title>
<polygon fill="white" stroke="none" points="-4,4 -4,-222 153,-222 153,4 -4,4"/>
<!-- Node1 -->
<g id="node1" class="node"><title>Node1</title>
<polygon fill="#bfbfbf" stroke="black" points="14.5,-0.5 14.5,-68.5 134.5,-68.5 134.5,-0.5 14.5,-0.5"/>
<text text-anchor="start" x="22.5" y="-56.5" font-family="Helvetica,sans-Serif" font-size="10.00">es.ull.esit.transports.Oil</text>
<text text-anchor="middle" x="74.5" y="-45.5" font-family="Helvetica,sans-Serif" font-size="10.00">Tanker</text>
<polyline fill="none" stroke="black" points="14.5,-38.5 134.5,-38.5 "/>
<text text-anchor="middle" x="74.5" y="-26.5" font-family="Helvetica,sans-Serif" font-size="10.00"> </text>
<polyline fill="none" stroke="black" points="14.5,-19.5 134.5,-19.5 "/>
<text text-anchor="start" x="22.5" y="-7.5" font-family="Helvetica,sans-Serif" font-size="10.00">+ OilTanker()</text>
</g>
<!-- Node2 -->
<g id="node2" class="node"><title>Node2</title>
<g id="a_node2"><a xlink:href="classes_1_1ull_1_1esit_1_1transports_1_1_transport.html" target="_top" xlink:title="Abstract class to represent a transport. ">
<polygon fill="white" stroke="black" points="-1.42109e-14,-105.5 -1.42109e-14,-217.5 149,-217.5 149,-105.5 -1.42109e-14,-105.5"/>
<text text-anchor="middle" x="74.5" y="-205.5" font-family="Helvetica,sans-Serif" font-size="10.00">es.ull.esit.transports.Transport</text>
<polyline fill="none" stroke="black" points="-1.42109e-14,-198.5 149,-198.5 "/>
<text text-anchor="start" x="8" y="-186.5" font-family="Helvetica,sans-Serif" font-size="10.00"># type</text>
<text text-anchor="start" x="8" y="-175.5" font-family="Helvetica,sans-Serif" font-size="10.00"># latitude</text>
<text text-anchor="start" x="8" y="-164.5" font-family="Helvetica,sans-Serif" font-size="10.00"># longitude</text>
<polyline fill="none" stroke="black" points="-1.42109e-14,-157.5 149,-157.5 "/>
<text text-anchor="start" x="8" y="-145.5" font-family="Helvetica,sans-Serif" font-size="10.00">+ getType()</text>
<text text-anchor="start" x="8" y="-134.5" font-family="Helvetica,sans-Serif" font-size="10.00">+ getLatitude()</text>
<text text-anchor="start" x="8" y="-123.5" font-family="Helvetica,sans-Serif" font-size="10.00">+ getLongitude()</text>
<text text-anchor="start" x="8" y="-112.5" font-family="Helvetica,sans-Serif" font-size="10.00">+ setCoordinates()</text>
</a>
</g>
</g>
<!-- Node2&#45;&gt;Node1 -->
<g id="edge1" class="edge"><title>Node2&#45;&gt;Node1</title>
<path fill="none" stroke="midnightblue" d="M74.5,-95.2571C74.5,-85.9867 74.5,-76.797 74.5,-68.5058"/>
<polygon fill="none" stroke="midnightblue" points="71.0001,-95.3093 74.5,-105.309 78.0001,-95.3094 71.0001,-95.3093"/>
</g>
</g>
</svg>
