<?xml version="1.0" encoding="UTF-8" standalone="no"?>
<!DOCTYPE svg PUBLIC "-//W3C//DTD SVG 1.1//EN"
 "http://www.w3.org/Graphics/SVG/1.1/DTD/svg11.dtd">
<!-- Generated by graphviz version 2.38.0 (20140413.2041)
 -->
<!-- Title: es.ull.esit.GeoMap Pages: 1 -->
<svg width="157pt" height="248pt"
 viewBox="0.00 0.00 157.00 248.00" xmlns="http://www.w3.org/2000/svg" xmlns:xlink="http://www.w3.org/1999/xlink">
<g id="graph0" class="graph" transform="scale(1 1) rotate(0) translate(4 244)">
<title>es.ull.esit.GeoMap</title>
<polygon fill="white" stroke="none" points="-4,4 -4,-244 153,-244 153,4 -4,4"/>
<!-- Node1 -->
<g id="node1" class="node"><title>Node1</title>
<polygon fill="#bfbfbf" stroke="black" points="-1.42109e-14,-0.5 -1.42109e-14,-145.5 149,-145.5 149,-0.5 -1.42109e-14,-0.5"/>
<text text-anchor="middle" x="74.5" y="-133.5" font-family="Helvetica,sans-Serif" font-size="10.00">es.ull.esit.GeoMap</text>
<polyline fill="none" stroke="black" points="-1.42109e-14,-126.5 149,-126.5 "/>
<text text-anchor="start" x="8" y="-114.5" font-family="Helvetica,sans-Serif" font-size="10.00">+ N_TRANSPORTS</text>
<text text-anchor="start" x="8" y="-103.5" font-family="Helvetica,sans-Serif" font-size="10.00">&#45; transports</text>
<text text-anchor="start" x="8" y="-92.5" font-family="Helvetica,sans-Serif" font-size="10.00">&#45; map</text>
<text text-anchor="start" x="8" y="-81.5" font-family="Helvetica,sans-Serif" font-size="10.00">&#45; mapWidth</text>
<text text-anchor="start" x="8" y="-70.5" font-family="Helvetica,sans-Serif" font-size="10.00">&#45; mapHeight</text>
<polyline fill="none" stroke="black" points="-1.42109e-14,-63.5 149,-63.5 "/>
<text text-anchor="start" x="8" y="-51.5" font-family="Helvetica,sans-Serif" font-size="10.00">+ setup()</text>
<text text-anchor="start" x="8" y="-40.5" font-family="Helvetica,sans-Serif" font-size="10.00">+ setMarkers()</text>
<text text-anchor="start" x="8" y="-29.5" font-family="Helvetica,sans-Serif" font-size="10.00">+ draw()</text>
<text text-anchor="start" x="8" y="-18.5" font-family="Helvetica,sans-Serif" font-size="10.00">+ main()</text>
<text text-anchor="start" x="8" y="-7.5" font-family="Helvetica,sans-Serif" font-size="10.00">&#45; generateRandomTransports()</text>
</g>
<!-- Node2 -->
<g id="node2" class="node"><title>Node2</title>
<polygon fill="white" stroke="#bfbfbf" points="49,-182.5 49,-239.5 100,-239.5 100,-182.5 49,-182.5"/>
<text text-anchor="middle" x="74.5" y="-227.5" font-family="Helvetica,sans-Serif" font-size="10.00">PApplet</text>
<polyline fill="none" stroke="#bfbfbf" points="49,-220.5 100,-220.5 "/>
<text text-anchor="middle" x="74.5" y="-208.5" font-family="Helvetica,sans-Serif" font-size="10.00"> </text>
<polyline fill="none" stroke="#bfbfbf" points="49,-201.5 100,-201.5 "/>
<text text-anchor="middle" x="74.5" y="-189.5" font-family="Helvetica,sans-Serif" font-size="10.00"> </text>
</g>
<!-- Node2&#45;&gt;Node1 -->
<g id="edge1" class="edge"><title>Node2&#45;&gt;Node1</title>
<path fill="none" stroke="midnightblue" d="M74.5,-172.356C74.5,-163.999 74.5,-154.872 74.5,-145.656"/>
<polygon fill="none" stroke="midnightblue" points="71.0001,-172.478 74.5,-182.478 78.0001,-172.478 71.0001,-172.478"/>
</g>
</g>
</svg>
