<?xml version="1.0" encoding="UTF-8" standalone="no"?>
<!DOCTYPE svg PUBLIC "-//W3C//DTD SVG 1.1//EN"
 "http://www.w3.org/Graphics/SVG/1.1/DTD/svg11.dtd">
<!-- Generated by graphviz version 2.38.0 (20140413.2041)
 -->
<!-- Title: es.ull.esit.ConsoleMain Pages: 1 -->
<svg width="226pt" height="281pt"
 viewBox="0.00 0.00 225.50 281.00" xmlns="http://www.w3.org/2000/svg" xmlns:xlink="http://www.w3.org/1999/xlink">
<g id="graph0" class="graph" transform="scale(1 1) rotate(0) translate(4 277)">
<title>es.ull.esit.ConsoleMain</title>
<polygon fill="white" stroke="none" points="-4,4 -4,-277 221.5,-277 221.5,4 -4,4"/>
<!-- Node1 -->
<g id="node1" class="node"><title>Node1</title>
<polygon fill="#bfbfbf" stroke="black" points="52,-0.5 52,-156.5 201,-156.5 201,-0.5 52,-0.5"/>
<text text-anchor="middle" x="126.5" y="-144.5" font-family="Helvetica,sans-Serif" font-size="10.00">es.ull.esit.ConsoleMain</text>
<polyline fill="none" stroke="black" points="52,-137.5 201,-137.5 "/>
<text text-anchor="start" x="60" y="-125.5" font-family="Helvetica,sans-Serif" font-size="10.00">+ N_TRANSPORTS</text>
<polyline fill="none" stroke="black" points="52,-118.5 201,-118.5 "/>
<text text-anchor="start" x="60" y="-106.5" font-family="Helvetica,sans-Serif" font-size="10.00">+ main()</text>
<text text-anchor="start" x="60" y="-95.5" font-family="Helvetica,sans-Serif" font-size="10.00">+ defaultMenu()</text>
<text text-anchor="start" x="60" y="-84.5" font-family="Helvetica,sans-Serif" font-size="10.00">&#45; automaticMode()</text>
<text text-anchor="start" x="60" y="-73.5" font-family="Helvetica,sans-Serif" font-size="10.00">&#45; manualMode()</text>
<text text-anchor="start" x="60" y="-62.5" font-family="Helvetica,sans-Serif" font-size="10.00">&#45; generateRandomTransports()</text>
<text text-anchor="start" x="60" y="-51.5" font-family="Helvetica,sans-Serif" font-size="10.00">&#45; createShip()</text>
<text text-anchor="start" x="60" y="-40.5" font-family="Helvetica,sans-Serif" font-size="10.00">&#45; killShip()</text>
<text text-anchor="start" x="60" y="-29.5" font-family="Helvetica,sans-Serif" font-size="10.00">&#45; showShipStatus()</text>
<text text-anchor="start" x="60" y="-18.5" font-family="Helvetica,sans-Serif" font-size="10.00">&#45; updateShip()</text>
<text text-anchor="start" x="60" y="-7.5" font-family="Helvetica,sans-Serif" font-size="10.00">&#45; getSelectedShip()</text>
</g>
<!-- Node2 -->
<g id="node2" class="node"><title>Node2</title>
<polygon fill="white" stroke="#bfbfbf" points="0,-204.5 0,-272.5 133,-272.5 133,-204.5 0,-204.5"/>
<text text-anchor="start" x="8" y="-260.5" font-family="Helvetica,sans-Serif" font-size="10.00">List&lt; es.ull.esit.transports.</text>
<text text-anchor="middle" x="66.5" y="-249.5" font-family="Helvetica,sans-Serif" font-size="10.00">Transport &gt;</text>
<polyline fill="none" stroke="#bfbfbf" points="0,-242.5 133,-242.5 "/>
<text text-anchor="middle" x="66.5" y="-230.5" font-family="Helvetica,sans-Serif" font-size="10.00"> </text>
<polyline fill="none" stroke="#bfbfbf" points="0,-223.5 133,-223.5 "/>
<text text-anchor="middle" x="66.5" y="-211.5" font-family="Helvetica,sans-Serif" font-size="10.00"> </text>
</g>
<!-- Node2&#45;&gt;Node1 -->
<g id="edge1" class="edge"><title>Node2&#45;&gt;Node1</title>
<path fill="none" stroke="#404040" d="M63.7582,-204.244C63.8398,-194.648 64.7872,-184.27 67.5,-175 68.2056,-172.589 68.9898,-170.178 69.8427,-167.775"/>
<polygon fill="none" stroke="#404040" points="69.8551,-167.744 68.3623,-160.689 74.3005,-156.597 75.7932,-163.652 69.8551,-167.744"/>
<text text-anchor="middle" x="116" y="-178" font-family="Helvetica,sans-Serif" font-size="10.00"> #TRANSPORT_LIST</text>
</g>
<!-- Node3 -->
<g id="node3" class="node"><title>Node3</title>
<polygon fill="white" stroke="#bfbfbf" points="163.5,-210 163.5,-267 209.5,-267 209.5,-210 163.5,-210"/>
<text text-anchor="middle" x="186.5" y="-255" font-family="Helvetica,sans-Serif" font-size="10.00">Logger</text>
<polyline fill="none" stroke="#bfbfbf" points="163.5,-248 209.5,-248 "/>
<text text-anchor="middle" x="186.5" y="-236" font-family="Helvetica,sans-Serif" font-size="10.00"> </text>
<polyline fill="none" stroke="#bfbfbf" points="163.5,-229 209.5,-229 "/>
<text text-anchor="middle" x="186.5" y="-217" font-family="Helvetica,sans-Serif" font-size="10.00"> </text>
</g>
<!-- Node3&#45;&gt;Node1 -->
<g id="edge2" class="edge"><title>Node3&#45;&gt;Node1</title>
<path fill="none" stroke="#404040" d="M176.991,-209.723C173.202,-198.857 168.739,-186.31 164.5,-175 163.619,-172.65 162.721,-170.271 161.809,-167.871"/>
<polygon fill="none" stroke="#404040" points="161.76,-167.742 155.876,-163.573 157.462,-156.538 163.346,-160.708 161.76,-167.742"/>
<text text-anchor="middle" x="193" y="-178" font-family="Helvetica,sans-Serif" font-size="10.00"> &#45;LOGGER</text>
</g>
</g>
</svg>
