<?xml version="1.0" encoding="UTF-8" standalone="no"?>
<!DOCTYPE svg PUBLIC "-//W3C//DTD SVG 1.1//EN"
 "http://www.w3.org/Graphics/SVG/1.1/DTD/svg11.dtd">
<!-- Generated by graphviz version 2.38.0 (20140413.2041)
 -->
<!-- Title: es.ull.esit.GeoMap Pages: 1 -->
<svg width="543pt" height="226pt"
 viewBox="0.00 0.00 542.50 226.00" xmlns="http://www.w3.org/2000/svg" xmlns:xlink="http://www.w3.org/1999/xlink">
<g id="graph0" class="graph" transform="scale(1 1) rotate(0) translate(4 222)">
<title>es.ull.esit.GeoMap</title>
<polygon fill="white" stroke="none" points="-4,4 -4,-222 538.5,-222 538.5,4 -4,4"/>
<!-- Node1 -->
<g id="node1" class="node"><title>Node1</title>
<polygon fill="#bfbfbf" stroke="black" points="113,-0.5 113,-101.5 262,-101.5 262,-0.5 113,-0.5"/>
<text text-anchor="middle" x="187.5" y="-89.5" font-family="Helvetica,sans-Serif" font-size="10.00">es.ull.esit.GeoMap</text>
<polyline fill="none" stroke="black" points="113,-82.5 262,-82.5 "/>
<text text-anchor="start" x="121" y="-70.5" font-family="Helvetica,sans-Serif" font-size="10.00">+ N_TRANSPORTS</text>
<polyline fill="none" stroke="black" points="113,-63.5 262,-63.5 "/>
<text text-anchor="start" x="121" y="-51.5" font-family="Helvetica,sans-Serif" font-size="10.00">+ setup()</text>
<text text-anchor="start" x="121" y="-40.5" font-family="Helvetica,sans-Serif" font-size="10.00">+ draw()</text>
<text text-anchor="start" x="121" y="-29.5" font-family="Helvetica,sans-Serif" font-size="10.00">+ main()</text>
<text text-anchor="start" x="121" y="-18.5" font-family="Helvetica,sans-Serif" font-size="10.00">&#45; updateMarkers()</text>
<text text-anchor="start" x="121" y="-7.5" font-family="Helvetica,sans-Serif" font-size="10.00">&#45; generateRandomTransports()</text>
</g>
<!-- Node2 -->
<g id="node2" class="node"><title>Node2</title>
<polygon fill="white" stroke="#bfbfbf" points="0,-155 0,-212 51,-212 51,-155 0,-155"/>
<text text-anchor="middle" x="25.5" y="-200" font-family="Helvetica,sans-Serif" font-size="10.00">PApplet</text>
<polyline fill="none" stroke="#bfbfbf" points="0,-193 51,-193 "/>
<text text-anchor="middle" x="25.5" y="-181" font-family="Helvetica,sans-Serif" font-size="10.00"> </text>
<polyline fill="none" stroke="#bfbfbf" points="0,-174 51,-174 "/>
<text text-anchor="middle" x="25.5" y="-162" font-family="Helvetica,sans-Serif" font-size="10.00"> </text>
</g>
<!-- Node2&#45;&gt;Node1 -->
<g id="edge1" class="edge"><title>Node2&#45;&gt;Node1</title>
<path fill="none" stroke="midnightblue" d="M58.7231,-149.675C58.9825,-149.449 59.2415,-149.224 59.5,-149 78.161,-132.855 99.2171,-116.28 118.782,-101.502"/>
<polygon fill="none" stroke="midnightblue" points="56.2142,-147.226 51.1591,-156.537 60.9174,-152.41 56.2142,-147.226"/>
</g>
<!-- Node3 -->
<g id="node3" class="node"><title>Node3</title>
<polygon fill="white" stroke="#bfbfbf" points="69,-155 69,-212 146,-212 146,-155 69,-155"/>
<text text-anchor="middle" x="107.5" y="-200" font-family="Helvetica,sans-Serif" font-size="10.00">UnfoldingMap</text>
<polyline fill="none" stroke="#bfbfbf" points="69,-193 146,-193 "/>
<text text-anchor="middle" x="107.5" y="-181" font-family="Helvetica,sans-Serif" font-size="10.00"> </text>
<polyline fill="none" stroke="#bfbfbf" points="69,-174 146,-174 "/>
<text text-anchor="middle" x="107.5" y="-162" font-family="Helvetica,sans-Serif" font-size="10.00"> </text>
</g>
<!-- Node3&#45;&gt;Node1 -->
<g id="edge2" class="edge"><title>Node3&#45;&gt;Node1</title>
<path fill="none" stroke="#404040" d="M124.466,-154.824C132.18,-142.241 141.628,-126.829 150.838,-111.805"/>
<polygon fill="none" stroke="#404040" points="150.88,-111.736 150.606,-104.53 157.152,-101.505 157.426,-108.711 150.88,-111.736"/>
<text text-anchor="middle" x="158" y="-123" font-family="Helvetica,sans-Serif" font-size="10.00"> &#45;map</text>
</g>
<!-- Node4 -->
<g id="node4" class="node"><title>Node4</title>
<polygon fill="white" stroke="#bfbfbf" points="164.5,-155 164.5,-212 210.5,-212 210.5,-155 164.5,-155"/>
<text text-anchor="middle" x="187.5" y="-200" font-family="Helvetica,sans-Serif" font-size="10.00">Logger</text>
<polyline fill="none" stroke="#bfbfbf" points="164.5,-193 210.5,-193 "/>
<text text-anchor="middle" x="187.5" y="-181" font-family="Helvetica,sans-Serif" font-size="10.00"> </text>
<polyline fill="none" stroke="#bfbfbf" points="164.5,-174 210.5,-174 "/>
<text text-anchor="middle" x="187.5" y="-162" font-family="Helvetica,sans-Serif" font-size="10.00"> </text>
</g>
<!-- Node4&#45;&gt;Node1 -->
<g id="edge3" class="edge"><title>Node4&#45;&gt;Node1</title>
<path fill="none" stroke="#404040" d="M187.5,-154.824C187.5,-142.725 187.5,-128.01 187.5,-113.54"/>
<polygon fill="none" stroke="#404040" points="187.5,-113.505 183.5,-107.505 187.5,-101.505 191.5,-107.505 187.5,-113.505"/>
<text text-anchor="middle" x="212" y="-123" font-family="Helvetica,sans-Serif" font-size="10.00"> &#45;LOGGER</text>
</g>
<!-- Node5 -->
<g id="node5" class="node"><title>Node5</title>
<polygon fill="white" stroke="#bfbfbf" points="228.5,-149.5 228.5,-217.5 384.5,-217.5 384.5,-149.5 228.5,-149.5"/>
<text text-anchor="start" x="236.5" y="-205.5" font-family="Helvetica,sans-Serif" font-size="10.00">ArrayList&lt; es.ull.esit.transports.</text>
<text text-anchor="middle" x="306.5" y="-194.5" font-family="Helvetica,sans-Serif" font-size="10.00">Transport &gt;</text>
<polyline fill="none" stroke="#bfbfbf" points="228.5,-187.5 384.5,-187.5 "/>
<text text-anchor="middle" x="306.5" y="-175.5" font-family="Helvetica,sans-Serif" font-size="10.00"> </text>
<polyline fill="none" stroke="#bfbfbf" points="228.5,-168.5 384.5,-168.5 "/>
<text text-anchor="middle" x="306.5" y="-156.5" font-family="Helvetica,sans-Serif" font-size="10.00"> </text>
</g>
<!-- Node5&#45;&gt;Node1 -->
<g id="edge4" class="edge"><title>Node5&#45;&gt;Node1</title>
<path fill="none" stroke="#404040" d="M276.163,-149.232C265.533,-137.574 253.253,-124.107 241.284,-110.981"/>
<polygon fill="none" stroke="#404040" points="241.157,-110.842 234.158,-109.104 233.071,-101.975 240.07,-103.713 241.157,-110.842"/>
<text text-anchor="middle" x="283.5" y="-123" font-family="Helvetica,sans-Serif" font-size="10.00"> &#45;transports</text>
</g>
<!-- Node6 -->
<g id="node6" class="node"><title>Node6</title>
<polygon fill="white" stroke="#bfbfbf" points="402.5,-155 402.5,-212 534.5,-212 534.5,-155 402.5,-155"/>
<text text-anchor="middle" x="468.5" y="-200" font-family="Helvetica,sans-Serif" font-size="10.00">MarkerManager&lt; Marker &gt;</text>
<polyline fill="none" stroke="#bfbfbf" points="402.5,-193 534.5,-193 "/>
<text text-anchor="middle" x="468.5" y="-181" font-family="Helvetica,sans-Serif" font-size="10.00"> </text>
<polyline fill="none" stroke="#bfbfbf" points="402.5,-174 534.5,-174 "/>
<text text-anchor="middle" x="468.5" y="-162" font-family="Helvetica,sans-Serif" font-size="10.00"> </text>
</g>
<!-- Node6&#45;&gt;Node1 -->
<g id="edge5" class="edge"><title>Node6&#45;&gt;Node1</title>
<path fill="none" stroke="#404040" d="M409.25,-154.984C369.765,-136.646 317.236,-112.251 273.215,-91.8069"/>
<polygon fill="none" stroke="#404040" points="273.103,-91.755 265.976,-92.8556 262.219,-86.7005 269.346,-85.5999 273.103,-91.755"/>
<text text-anchor="middle" x="390.5" y="-123" font-family="Helvetica,sans-Serif" font-size="10.00"> &#45;markerManager</text>
</g>
</g>
</svg>
