<?xml version="1.0" encoding="UTF-8" standalone="no"?>
<!DOCTYPE svg PUBLIC "-//W3C//DTD SVG 1.1//EN"
 "http://www.w3.org/Graphics/SVG/1.1/DTD/svg11.dtd">
<!-- Generated by graphviz version 2.38.0 (20140413.2041)
 -->
<!-- Title: Graphical Class Hierarchy Pages: 1 -->
<svg width="327pt" height="137pt"
 viewBox="0.00 0.00 327.00 137.00" xmlns="http://www.w3.org/2000/svg" xmlns:xlink="http://www.w3.org/1999/xlink">
<g id="graph0" class="graph" transform="scale(1 1) rotate(0) translate(4 133)">
<title>Graphical Class Hierarchy</title>
<polygon fill="white" stroke="none" points="-4,4 -4,-133 323,-133 323,4 -4,4"/>
<!-- Node1 -->
<g id="node1" class="node"><title>Node1</title>
<g id="a_node1"><a xlink:href="interfacees_1_1ull_1_1esit_1_1factories_1_1_transport_factory.html" target="_top" xlink:title="Interface to represent an Abstract Factory. ">
<polygon fill="white" stroke="black" points="0,-49.5 0,-79.5 143,-79.5 143,-49.5 0,-49.5"/>
<text text-anchor="start" x="8" y="-67.5" font-family="Helvetica,sans-Serif" font-size="10.00">es.ull.esit.factories.Transport</text>
<text text-anchor="middle" x="71.5" y="-56.5" font-family="Helvetica,sans-Serif" font-size="10.00">Factory</text>
</a>
</g>
</g>
<!-- Node2 -->
<g id="node2" class="node"><title>Node2</title>
<g id="a_node2"><a xlink:href="classes_1_1ull_1_1esit_1_1factories_1_1_cruise_ship_factory.html" target="_top" xlink:title="es.ull.esit.factories.Cruise\lShipFactory">
<polygon fill="white" stroke="black" points="183.5,-98.5 183.5,-128.5 314.5,-128.5 314.5,-98.5 183.5,-98.5"/>
<text text-anchor="start" x="191.5" y="-116.5" font-family="Helvetica,sans-Serif" font-size="10.00">es.ull.esit.factories.Cruise</text>
<text text-anchor="middle" x="249" y="-105.5" font-family="Helvetica,sans-Serif" font-size="10.00">ShipFactory</text>
</a>
</g>
</g>
<!-- Node1&#45;&gt;Node2 -->
<g id="edge1" class="edge"><title>Node1&#45;&gt;Node2</title>
<path fill="none" stroke="midnightblue" d="M136.329,-82.3212C155.278,-87.6118 175.838,-93.3522 194.091,-98.4484"/>
<polygon fill="midnightblue" stroke="midnightblue" points="137.161,-78.9196 126.588,-79.6014 135.278,-85.6618 137.161,-78.9196"/>
</g>
<!-- Node3 -->
<g id="node3" class="node"><title>Node3</title>
<g id="a_node3"><a xlink:href="classes_1_1ull_1_1esit_1_1factories_1_1_freighter_factory.html" target="_top" xlink:title="es.ull.esit.factories.Freighter\lFactory">
<polygon fill="white" stroke="black" points="179,-49.5 179,-79.5 319,-79.5 319,-49.5 179,-49.5"/>
<text text-anchor="start" x="187" y="-67.5" font-family="Helvetica,sans-Serif" font-size="10.00">es.ull.esit.factories.Freighter</text>
<text text-anchor="middle" x="249" y="-56.5" font-family="Helvetica,sans-Serif" font-size="10.00">Factory</text>
</a>
</g>
</g>
<!-- Node1&#45;&gt;Node3 -->
<g id="edge2" class="edge"><title>Node1&#45;&gt;Node3</title>
<path fill="none" stroke="midnightblue" d="M153.171,-64.5C161.783,-64.5 170.487,-64.5 178.947,-64.5"/>
<polygon fill="midnightblue" stroke="midnightblue" points="153.124,-61.0001 143.124,-64.5 153.124,-68.0001 153.124,-61.0001"/>
</g>
<!-- Node4 -->
<g id="node4" class="node"><title>Node4</title>
<g id="a_node4"><a xlink:href="classes_1_1ull_1_1esit_1_1factories_1_1_oil_tanker_factory.html" target="_top" xlink:title="es.ull.esit.factories.Oil\lTankerFactory">
<polygon fill="white" stroke="black" points="192,-0.5 192,-30.5 306,-30.5 306,-0.5 192,-0.5"/>
<text text-anchor="start" x="200" y="-18.5" font-family="Helvetica,sans-Serif" font-size="10.00">es.ull.esit.factories.Oil</text>
<text text-anchor="middle" x="249" y="-7.5" font-family="Helvetica,sans-Serif" font-size="10.00">TankerFactory</text>
</a>
</g>
</g>
<!-- Node1&#45;&gt;Node4 -->
<g id="edge3" class="edge"><title>Node1&#45;&gt;Node4</title>
<path fill="none" stroke="midnightblue" d="M136.329,-46.6788C155.278,-41.3882 175.838,-35.6478 194.091,-30.5516"/>
<polygon fill="midnightblue" stroke="midnightblue" points="135.278,-43.3382 126.588,-49.3986 137.161,-50.0804 135.278,-43.3382"/>
</g>
</g>
</svg>
