<?xml version="1.0" encoding="UTF-8" standalone="no"?>
<!DOCTYPE svg PUBLIC "-//W3C//DTD SVG 1.1//EN"
 "http://www.w3.org/Graphics/SVG/1.1/DTD/svg11.dtd">
<!-- Generated by graphviz version 2.38.0 (20140413.2041)
 -->
<!-- Title: Graphical Class Hierarchy Pages: 1 -->
<svg width="349pt" height="116pt"
 viewBox="0.00 0.00 349.00 115.50" xmlns="http://www.w3.org/2000/svg" xmlns:xlink="http://www.w3.org/1999/xlink">
<g id="graph0" class="graph" transform="scale(1 1) rotate(0) translate(4 111.5)">
<title>Graphical Class Hierarchy</title>
<polygon fill="white" stroke="none" points="-4,4 -4,-111.5 345,-111.5 345,4 -4,4"/>
<!-- Node1 -->
<g id="node1" class="node"><title>Node1</title>
<g id="a_node1"><a xlink:href="classes_1_1ull_1_1esit_1_1transports_1_1_transport.html" target="_top" xlink:title="Abstract class to represent a transport. ">
<polygon fill="white" stroke="black" points="0,-50 0,-69 149,-69 149,-50 0,-50"/>
<text text-anchor="middle" x="74.5" y="-57" font-family="Helvetica,sans-Serif" font-size="10.00">es.ull.esit.transports.Transport</text>
</a>
</g>
</g>
<!-- Node2 -->
<g id="node2" class="node"><title>Node2</title>
<g id="a_node2"><a xlink:href="classes_1_1ull_1_1esit_1_1transports_1_1_cruise_ship.html" target="_top" xlink:title="Class to represent a Cruise Ship. ">
<polygon fill="white" stroke="black" points="185,-88 185,-107 341,-107 341,-88 185,-88"/>
<text text-anchor="middle" x="263" y="-95" font-family="Helvetica,sans-Serif" font-size="10.00">es.ull.esit.transports.CruiseShip</text>
</a>
</g>
</g>
<!-- Node1&#45;&gt;Node2 -->
<g id="edge1" class="edge"><title>Node1&#45;&gt;Node2</title>
<path fill="none" stroke="midnightblue" d="M132.478,-71.1095C159.003,-76.514 190.166,-82.8635 215.277,-87.9799"/>
<polygon fill="midnightblue" stroke="midnightblue" points="133.059,-67.6561 122.562,-69.089 131.662,-74.5151 133.059,-67.6561"/>
</g>
<!-- Node3 -->
<g id="node3" class="node"><title>Node3</title>
<g id="a_node3"><a xlink:href="classes_1_1ull_1_1esit_1_1transports_1_1_freighter.html" target="_top" xlink:title="Class to represent a Freighter. ">
<polygon fill="white" stroke="black" points="190,-50 190,-69 336,-69 336,-50 190,-50"/>
<text text-anchor="middle" x="263" y="-57" font-family="Helvetica,sans-Serif" font-size="10.00">es.ull.esit.transports.Freighter</text>
</a>
</g>
</g>
<!-- Node1&#45;&gt;Node3 -->
<g id="edge2" class="edge"><title>Node1&#45;&gt;Node3</title>
<path fill="none" stroke="midnightblue" d="M159.3,-59.5C169.458,-59.5 179.768,-59.5 189.74,-59.5"/>
<polygon fill="midnightblue" stroke="midnightblue" points="159.21,-56.0001 149.21,-59.5 159.21,-63.0001 159.21,-56.0001"/>
</g>
<!-- Node4 -->
<g id="node4" class="node"><title>Node4</title>
<g id="a_node4"><a xlink:href="classes_1_1ull_1_1esit_1_1transports_1_1_oil_tanker.html" target="_top" xlink:title="Class to represent an Oil Tanker. ">
<polygon fill="white" stroke="black" points="203,-0.5 203,-30.5 323,-30.5 323,-0.5 203,-0.5"/>
<text text-anchor="start" x="211" y="-18.5" font-family="Helvetica,sans-Serif" font-size="10.00">es.ull.esit.transports.Oil</text>
<text text-anchor="middle" x="263" y="-7.5" font-family="Helvetica,sans-Serif" font-size="10.00">Tanker</text>
</a>
</g>
</g>
<!-- Node1&#45;&gt;Node4 -->
<g id="edge3" class="edge"><title>Node1&#45;&gt;Node4</title>
<path fill="none" stroke="midnightblue" d="M125.829,-47.6261C149.575,-42.0238 178.071,-35.3009 202.844,-29.4563"/>
<polygon fill="midnightblue" stroke="midnightblue" points="124.897,-44.2499 115.968,-49.9527 126.504,-51.0629 124.897,-44.2499"/>
</g>
</g>
</svg>
