<?xml version="1.0" encoding="UTF-8" standalone="no"?>
<!DOCTYPE svg PUBLIC "-//W3C//DTD SVG 1.1//EN"
 "http://www.w3.org/Graphics/SVG/1.1/DTD/svg11.dtd">
<!-- Generated by graphviz version 2.38.0 (20140413.2041)
 -->
<!-- Title: es.ull.esit.factories.TransportFactory Pages: 1 -->
<svg width="430pt" height="182pt"
 viewBox="0.00 0.00 429.50 182.00" xmlns="http://www.w3.org/2000/svg" xmlns:xlink="http://www.w3.org/1999/xlink">
<g id="graph0" class="graph" transform="scale(1 1) rotate(0) translate(4 178)">
<title>es.ull.esit.factories.TransportFactory</title>
<polygon fill="white" stroke="none" points="-4,4 -4,-178 425.5,-178 425.5,4 -4,4"/>
<!-- Node1 -->
<g id="node1" class="node"><title>Node1</title>
<polygon fill="#bfbfbf" stroke="black" points="148,-105.5 148,-173.5 291,-173.5 291,-105.5 148,-105.5"/>
<text text-anchor="start" x="156" y="-161.5" font-family="Helvetica,sans-Serif" font-size="10.00">es.ull.esit.factories.Transport</text>
<text text-anchor="middle" x="219.5" y="-150.5" font-family="Helvetica,sans-Serif" font-size="10.00">Factory</text>
<polyline fill="none" stroke="black" points="148,-143.5 291,-143.5 "/>
<text text-anchor="middle" x="219.5" y="-131.5" font-family="Helvetica,sans-Serif" font-size="10.00"> </text>
<polyline fill="none" stroke="black" points="148,-124.5 291,-124.5 "/>
<text text-anchor="start" x="156" y="-112.5" font-family="Helvetica,sans-Serif" font-size="10.00">+ createTransport()</text>
</g>
<!-- Node2 -->
<g id="node2" class="node"><title>Node2</title>
<g id="a_node2"><a xlink:href="classes_1_1ull_1_1esit_1_1factories_1_1_cruise_ship_factory.html" target="_top" xlink:title="A concrete factory, which function is generate a CruiseShip. ">
<polygon fill="white" stroke="black" points="0,-0.5 0,-68.5 131,-68.5 131,-0.5 0,-0.5"/>
<text text-anchor="start" x="8" y="-56.5" font-family="Helvetica,sans-Serif" font-size="10.00">es.ull.esit.factories.Cruise</text>
<text text-anchor="middle" x="65.5" y="-45.5" font-family="Helvetica,sans-Serif" font-size="10.00">ShipFactory</text>
<polyline fill="none" stroke="black" points="0,-38.5 131,-38.5 "/>
<text text-anchor="middle" x="65.5" y="-26.5" font-family="Helvetica,sans-Serif" font-size="10.00"> </text>
<polyline fill="none" stroke="black" points="0,-19.5 131,-19.5 "/>
<text text-anchor="start" x="8" y="-7.5" font-family="Helvetica,sans-Serif" font-size="10.00">+ createTransport()</text>
</a>
</g>
</g>
<!-- Node1&#45;&gt;Node2 -->
<g id="edge1" class="edge"><title>Node1&#45;&gt;Node2</title>
<path fill="none" stroke="midnightblue" d="M161.538,-99.7335C146.212,-89.483 129.813,-78.5143 114.981,-68.5947"/>
<polygon fill="none" stroke="midnightblue" points="159.668,-102.693 169.926,-105.343 163.559,-96.8744 159.668,-102.693"/>
</g>
<!-- Node3 -->
<g id="node3" class="node"><title>Node3</title>
<g id="a_node3"><a xlink:href="classes_1_1ull_1_1esit_1_1factories_1_1_freighter_factory.html" target="_top" xlink:title="A concrete factory, which function is generate a Freighter. ">
<polygon fill="white" stroke="black" points="149.5,-0.5 149.5,-68.5 289.5,-68.5 289.5,-0.5 149.5,-0.5"/>
<text text-anchor="start" x="157.5" y="-56.5" font-family="Helvetica,sans-Serif" font-size="10.00">es.ull.esit.factories.Freighter</text>
<text text-anchor="middle" x="219.5" y="-45.5" font-family="Helvetica,sans-Serif" font-size="10.00">Factory</text>
<polyline fill="none" stroke="black" points="149.5,-38.5 289.5,-38.5 "/>
<text text-anchor="middle" x="219.5" y="-26.5" font-family="Helvetica,sans-Serif" font-size="10.00"> </text>
<polyline fill="none" stroke="black" points="149.5,-19.5 289.5,-19.5 "/>
<text text-anchor="start" x="157.5" y="-7.5" font-family="Helvetica,sans-Serif" font-size="10.00">+ createTransport()</text>
</a>
</g>
</g>
<!-- Node1&#45;&gt;Node3 -->
<g id="edge2" class="edge"><title>Node1&#45;&gt;Node3</title>
<path fill="none" stroke="midnightblue" d="M219.5,-95.1362C219.5,-86.256 219.5,-77.0447 219.5,-68.5947"/>
<polygon fill="none" stroke="midnightblue" points="216,-95.3432 219.5,-105.343 223,-95.3432 216,-95.3432"/>
</g>
<!-- Node4 -->
<g id="node4" class="node"><title>Node4</title>
<g id="a_node4"><a xlink:href="classes_1_1ull_1_1esit_1_1factories_1_1_oil_tanker_factory.html" target="_top" xlink:title="A concrete factory, which function is generate an OilTanker. ">
<polygon fill="white" stroke="black" points="307.5,-0.5 307.5,-68.5 421.5,-68.5 421.5,-0.5 307.5,-0.5"/>
<text text-anchor="start" x="315.5" y="-56.5" font-family="Helvetica,sans-Serif" font-size="10.00">es.ull.esit.factories.Oil</text>
<text text-anchor="middle" x="364.5" y="-45.5" font-family="Helvetica,sans-Serif" font-size="10.00">TankerFactory</text>
<polyline fill="none" stroke="black" points="307.5,-38.5 421.5,-38.5 "/>
<text text-anchor="middle" x="364.5" y="-26.5" font-family="Helvetica,sans-Serif" font-size="10.00"> </text>
<polyline fill="none" stroke="black" points="307.5,-19.5 421.5,-19.5 "/>
<text text-anchor="start" x="315.5" y="-7.5" font-family="Helvetica,sans-Serif" font-size="10.00">+ createTransport()</text>
</a>
</g>
</g>
<!-- Node1&#45;&gt;Node4 -->
<g id="edge3" class="edge"><title>Node1&#45;&gt;Node4</title>
<path fill="none" stroke="midnightblue" d="M274.475,-99.4486C288.79,-89.2799 304.075,-78.4225 317.91,-68.5947"/>
<polygon fill="none" stroke="midnightblue" points="272.303,-96.6987 266.177,-105.343 276.356,-102.405 272.303,-96.6987"/>
</g>
</g>
</svg>
